<?xml version="1.0" encoding="UTF-8"?>
<svg id="Layer_2" data-name="Layer 2" xmlns="http://www.w3.org/2000/svg" width="219.402" height="194.17" xmlns:xlink="http://www.w3.org/1999/xlink" viewBox="0 0 219.402 194.17">
  <defs>
    <clipPath id="clippath">
      <path d="M180.875,27.53c1.199-.118,1.945.182,2.963.351,2.9.48,10.482,4.734,12.213,8.866.338.634.558,1.005.875,1.402,2.136,2.671,4.072,5.652,5.182,9.333-1.099-.162-1.888-1.036-3.024-1.309-3.351-.804-2.883-1.114-5.713-3.08-1.05-.728-2.509-1.021-3.447-1.963-1.1-1.104-2.228-4.448-3.262-6.063-1.791-2.795-4.303-4.725-6.425-7.015-.106-.793.255-.483.638-.521h0ZM149.802,8.721c.703-.184,2.167-.383,2.897-.443,8.065-.658,22.173,9.931,22.469,10.202.746.687,5.959,6.075,5.069,7.297-3.175,1.022-6.239-.656-9.396-1.044-1.225-.151-2.371.255-3.546.005-1.821-.387-3.663-3.402-5.149-4.631-1.704-1.406-6.077-5.066-7.192-6.014-.135-.115-.711-.374-.967-.565-1.254-.936-4.348-2.282-4.887-4.031-.181-.589.423-.703.704-.776h-.002ZM116.154,6.528c7.158-5.981,18.931-5.38,26.507-1.05,1.999,1.142,4.371,2.44,5.405,5.247-1.974.156-4.087-.203-6.044.01-3.392.368-6.569,2.361-10.039,2.09-1.344-.105-2.837-.798-4.151-1.002-.613-.095-2.544-.625-2.157,1.008,1.775.249,3.453,1.119,5.046,1.363,5.235.8,9.995-2.767,15.41-2.059,6.489.848,15.205,9.14,15.664,9.489.885.673,2.488,3.974,1.644,5.118-.467.634-3.554,2.5-4.291,2.738-1.405.454-3.135.24-4.494.538-1.22.267-2.561,1.352-3.628,1.398-3.895.166-6.303-4.248-9.972-5.725-1.879-.756-3.428-.59-5.153-1.042-2.32-.607-4.608-2.122-7.08-2.623-3.828-.775-7.756-.586-11.479.862-5.468-4.06-7.148-11.378-1.188-16.358v-.002ZM148.009,81.534c-5.862,2.125-15.917-1.811-22.062-3.448-.394-.104-1.053-.445-1.299.199.416.249.267.179,1.544.701,5.824,1.966,12.808,5.5,16.984,5.247-3.636.785-7.263,1.956-10.938,2.451-5.363.723-12.582,1.69-17.09-3.002-6.29-6.549-1.529-17.993,5.78-17.662,3.683.166,7.016,1.978,11.183,1.765,1.318-.067,2.574-.346,3.86-.7.592-.162,4.488-1.493,4.632-1.754.145-.263-.126-.904-.41-.987-.726-.21-4.461,1.18-5.641,1.335-5.135.674-14.76-.228-18.891-4.749-3.9-4.27-4.659-11.277-1.566-16.598,4.284-7.37,10.924-6.7,17.5-7.351.735-.765-.938-1.4-1.415-1.4l-6.036.308c-1.829,0-6.231,2.26-7.88,3.594-1.773,1.433-2.406,3.802-3.684-.266-1.554-4.945.046-9.912,3.06-12.737,6.36-5.963,12.834-2.467,19.49-.432,4.741,1.45,8.358.525,11.649,6.733,1.477,2.786,2.218,5.438.983,8.862-1.488,4.125-3.356,3.155-5.971,3.779-3.051.728-6.241,1.989-9.324,1.393-.84-.162-.614.101-.614,1.016,5.108,1.652,10.397-1.73,15.757-.954,3.723.54,7.362,2.722,9.206,7.254.036.09.333.212.456.593.522,1.621.766,3.758.559,5.514-.428,3.626-6.077,6.197-8.477,6.149.318,1.047,1.492.732,2.157.652,1.944-.235,3.719-1.334,5.563-2.054-.002,7.352-3.783,14.634-9.063,16.548h-.002ZM182.683,81.118l-13.336-3.87c-.592-2.118-1.643-6.964-3.4-7.708-.132-.056-.42-.096-.379.168.528,1.272,1.425,2.334,1.55,3.846.439,5.31-2.93,3.389-5.537,3.688-2.394.274-4.927,1.41-7.339,1.741,1.88-3.284,3.131-6.064,3.86-10.148.625-3.497.799-7.17,1.576-10.633,3.627-5.43,10.694-2.782,14.987-.167,3.695,2.25,6.717,4.863,8.916,9.401.471.972,1.034,1.584,1.363,2.871.918,3.593.779,9.392-2.261,10.813v-.002h0ZM198.509,84.234c.968-3.83,1.256-8.093-.206-11.796-.238-.602-2.576-4.598-2.062-2.097.445,2.165,1.583,3.589,1.763,6.354.16,2.456-.286,6.629-2.468,7.174-3.107.775-6.845-1.045-9.896-1.735.936-4.386,1.601-7.759.384-12.246-.442-1.628-1.967-4.04-1.943-5.409.038-2.187,1.421-3.425,2.589-4.396,4.794-3.98,10.562.436,14.158,5.072,1.172,1.511,2.314,3.037,3.332,4.644.034.054.339.592.665,1.113,5.413,8.64.667,13.934-6.314,13.322h-.002ZM196.112,58.616c-1.53-.958-3.971-1.239-5.197-2.381-1.443-1.342-2.005-4.573-2.909-6.545-3.54-7.731-13.809-12.648-20.265-11.677-.582.087-.892.12-.888,1.068,7.042.609,14.195,2.075,19.044,9.8,5.231,8.332-1.381,13.572-7.38,10.214-3.319-1.859-5.682-4.696-9.592-5.506-3.308-.686-7.78,1.029-10.578-1.015-1.2-.877-2.215-2.871-3.507-3.98-2.136-1.835-4.89-2.031-5.425-6.271-.196-1.551-.005-2.501.195-3.943.63-4.561,3.02-6.482,6.337-6.958,1.236-.177,2.483.151,3.714-.198,1.827-.517,3.613-2.919,5.528-3.66,7.892-3.06,18.106,1.868,21.994,11.866.031.077.498,1.518.577,1.748.434,1.237.429,1.246.438,1.804.519.142.734.214,1.206.336.608.157.812.182,1.124.312,4.544,1.901,7.366,5.614,10.037,10.852.39-.427.474-1.113.203-1.651l-2.519-4.998c5.131,1.407,11.613,9.588,14.009,15.77,1.065,2.747,1.185,3.866-.522,8.616l-15.627-13.604h.003ZM41.508,27.53c-1.199-.118-1.945.182-2.963.351-2.899.48-10.482,4.734-12.212,8.866-.339.634-.559,1.005-.876,1.402-2.135,2.671-4.071,5.652-5.182,9.333,1.1-.162,1.889-1.036,3.025-1.309,3.351-.804,2.883-1.114,5.713-3.08,1.049-.728,2.509-1.021,3.447-1.963,1.099-1.104,2.227-4.448,3.262-6.063,1.791-2.795,4.303-4.725,6.424-7.015.106-.793-.254-.483-.638-.521h0ZM72.581,8.721c-.703-.184-2.166-.383-2.896-.443-8.065-.658-22.174,9.931-22.469,10.202-.747.687-5.959,6.075-5.07,7.297,3.176,1.022,6.24-.656,9.397-1.044,1.225-.151,2.37.255,3.546.005,1.82-.387,3.662-3.402,5.149-4.631,1.703-1.406,6.076-5.066,7.191-6.014.136-.115.711-.374.968-.565,1.253-.936,4.347-2.282,4.886-4.031.182-.589-.423-.703-.704-.776h.002,0ZM106.229,6.528c-7.157-5.981-18.93-5.38-26.507-1.05-1.999,1.142-4.371,2.44-5.404,5.247,1.973.156,4.087-.203,6.044.01,3.392.368,6.568,2.361,10.038,2.09,1.345-.105,2.837-.798,4.152-1.002.613-.095,2.543-.625,2.156,1.008-1.774.249-3.452,1.119-5.045,1.363-5.236.8-9.996-2.767-15.411-2.059-6.488.848-15.205,9.14-15.663,9.489-.885.673-2.488,3.974-1.645,5.118.467.634,3.555,2.5,4.292,2.738,1.405.454,3.135.24,4.494.538,1.219.267,2.561,1.352,3.628,1.398,3.895.166,6.303-4.248,9.972-5.725,1.879-.756,3.428-.59,5.153-1.042,2.319-.607,4.607-2.122,7.079-2.623,3.829-.775,7.756-.586,11.48.862,5.467-4.06,7.147-11.378,1.187-16.358v-.002ZM74.374,81.534c5.863,2.125,15.918-1.811,22.062-3.448.394-.104,1.053-.445,1.3.199-.416.249-.267.179-1.544.701-5.824,1.966-12.809,5.5-16.985,5.247,3.637.785,7.264,1.956,10.939,2.451,5.362.723,12.582,1.69,17.089-3.002,6.291-6.549,1.53-17.993-5.779-17.662-3.683.166-7.016,1.978-11.184,1.765-1.318-.067-2.574-.346-3.86-.7-.591-.162-4.487-1.493-4.632-1.754-.144-.263.127-.904.411-.987.725-.21,4.46,1.18,5.641,1.334,5.134.675,14.759-.227,18.89-4.748,3.9-4.27,4.66-11.277,1.566-16.598-4.284-7.37-10.923-6.7-17.5-7.351-.734-.765.938-1.4,1.416-1.4l6.036.308c1.828,0,6.23,2.26,7.88,3.594,1.772,1.433,2.405,3.802,3.683-.266,1.555-4.945-.045-9.912-3.059-12.737-6.361-5.963-12.835-2.467-19.49-.432-4.741,1.45-8.359.525-11.649,6.733-1.477,2.786-2.218,5.438-.983,8.862,1.488,4.125,3.356,3.155,5.971,3.779,3.051.728,6.241,1.989,9.324,1.393.84-.162.614.101.614,1.016-5.108,1.652-10.397-1.73-15.757-.954-3.723.54-7.362,2.722-9.207,7.254-.036.09-.332.212-.455.593-.523,1.621-.766,3.758-.56,5.514.428,3.626,6.077,6.197,8.478,6.149-.318,1.047-1.493.732-2.158.652-1.943-.235-3.718-1.334-5.562-2.054.002,7.352,3.783,14.634,9.062,16.548h.002ZM39.701,81.118l13.336-3.87c.592-2.118,1.643-6.964,3.399-7.708.132-.056.421-.096.38.168-.529,1.272-1.426,2.334-1.55,3.846-.439,5.31,2.929,3.389,5.536,3.688,2.394.274,4.927,1.41,7.339,1.741-1.88-3.284-3.13-6.064-3.86-10.148-.625-3.497-.798-7.17-1.575-10.633-3.627-5.43-10.694-2.782-14.988-.167-3.694,2.25-6.717,4.863-8.915,9.401-.471.972-1.035,1.584-1.363,2.871-.919,3.593-.779,9.392,2.261,10.813,0,0,0-.002,0-.002ZM23.875,84.234c-.968-3.83-1.256-8.093.206-11.796.237-.602,2.575-4.598,2.062-2.097-.445,2.165-1.584,3.589-1.763,6.354-.16,2.456.286,6.629,2.468,7.174,3.107.775,6.845-1.045,9.896-1.735-.936-4.386-1.601-7.759-.384-12.246.441-1.628,1.966-4.04,1.943-5.409-.038-2.187-1.422-3.426-2.59-4.396-4.794-3.98-10.562.436-14.158,5.072-1.172,1.511-2.313,3.037-3.331,4.644-.034.054-.339.592-.665,1.113-5.413,8.64-.667,13.934,6.314,13.322h.002ZM26.271,58.616c1.53-.958,3.971-1.239,5.198-2.381,1.443-1.342,2.005-4.573,2.908-6.545,3.541-7.731,13.809-12.648,20.265-11.677.583.087.893.12.889,1.068-7.043.609-14.195,2.075-19.045,9.8-5.231,8.332,1.382,13.572,7.381,10.214,3.319-1.859,5.681-4.696,9.592-5.506,3.308-.686,7.779,1.029,10.578-1.015,1.2-.877,2.215-2.871,3.507-3.98,2.136-1.835,4.889-2.031,5.424-6.271.196-1.551.005-2.501-.195-3.943-.629-4.561-3.019-6.482-6.336-6.958-1.236-.177-2.483.151-3.715-.198-1.827-.517-3.612-2.919-5.527-3.66-7.892-3.06-18.106,1.868-21.995,11.866-.03.077-.497,1.518-.577,1.748-.434,1.237-.428,1.246-.438,1.804-.518.142-.734.214-1.206.336-.607.157-.812.182-1.124.312-4.543,1.901-7.366,5.614-10.036,10.852-.39-.427-.474-1.113-.203-1.651l2.518-4.998c-5.13,1.407-11.613,9.588-14.008,15.77-1.065,2.747-1.185,3.866.522,8.616l15.627-13.604h-.004Z" fill="none"/>
    </clipPath>
    <linearGradient id="linear-gradient" x1="-802.49" y1="-750.267" x2="-369.509" y2="-750.267" gradientTransform="translate(-1186.318 941.512) rotate(90) scale(1.572 1.619)" gradientUnits="userSpaceOnUse">
      <stop offset="0" stop-color="#00d4ff"/>
      <stop offset=".07" stop-color="#3d51ff"/>
      <stop offset=".14" stop-color="#de3aff"/>
      <stop offset=".21" stop-color="#fd2032"/>
      <stop offset=".291" stop-color="#ff9f0e"/>
      <stop offset=".338" stop-color="#ff9e00"/>
      <stop offset=".4" stop-color="#3aff68"/>
      <stop offset=".49" stop-color="#00d4ff"/>
      <stop offset=".56" stop-color="#3d51ff"/>
      <stop offset=".64" stop-color="#de3aff"/>
      <stop offset=".71" stop-color="#fd2032"/>
      <stop offset=".78" stop-color="#ffdc0e"/>
      <stop offset=".85" stop-color="#ff9e1b"/>
      <stop offset=".92" stop-color="#3aff68"/>
      <stop offset="1" stop-color="#00d4ff"/>
    </linearGradient>
  </defs>
  <g id="Layer_2-2" data-name="Layer 2">
    <g id="Layer_5" data-name="Layer 5">
      <path d="M163.261,194.17c-4.297-5.821-8.181-12.106-11.55-18.691,6.385-2.413,12.604-5.404,18.49-8.895.108-.063.177-.178.183-.304.006-.125-.051-.246-.152-.32-1.532-1.129-3.077-2.331-4.591-3.573-.068-.056-.153-.085-.238-.085-.054,0-.108.012-.158.035-17.764,8.272-36.393,12.467-55.37,12.467s-37.717-4.195-55.696-12.468c-.05-.022-.104-.034-.157-.034-.086,0-.171.029-.239.087-1.491,1.237-3.034,2.438-4.587,3.57-.102.074-.16.194-.154.32s.075.241.184.305c5.902,3.492,12.109,6.478,18.455,8.876-3.307,6.479-7.191,12.764-11.551,18.691-19.987-6.156-38.05-15.269-55.207-27.85-2.83-30.081.836-57.724,11.208-84.506.05-.128.025-.273-.063-.377-3.177-3.753-4.053-9.106-4.282-11.233-.735-6.803,3.609-12.506,7.099-17.087l.069-.091c.259-.34.652-.712,1.033-1.073.492-.466,1.001-.948,1.292-1.424.443-.725.821-1.908,1.187-3.053.268-.836.543-1.701.828-2.325,2.928-6.417,10.362-15.703,15.928-18.527.535-.271,1.513-.541,2.46-.802,1.359-.375,2.209-.62,2.561-.933.267-.237.46-.701.684-1.238.142-.34.289-.692.43-.906,5.084-7.675,17.144-15.676,24.815-16.464.284-.029.585-.042.9-.042.979,0,2.097.12,3.179.236,1.076.115,2.093.225,2.983.225.46,0,.845-.03,1.177-.09.616-.113,1.613-.829,3.18-1.996.922-.686,1.875-1.396,2.478-1.698,3.725-1.868,8.343-2.897,13.003-2.897,5.332,0,10.174,1.387,13.633,3.906,1.694,1.232,2.997,2.956,4.153,4.635.07.102.186.162.309.162h.026c.043-.003.084-.013.123-.03.081-.02.154-.062.202-.131,1.157-1.679,2.46-3.403,4.153-4.635C119.131,1.388,123.973,0,129.305,0c4.66,0,9.278,1.029,13.003,2.897.602.302,1.556,1.011,2.478,1.697,1.568,1.167,2.564,1.883,3.18,1.996.333.06.717.09,1.178.09.891,0,1.907-.109,2.983-.225,1.082-.116,2.201-.236,3.179-.236.314,0,.616.012.9.042,7.671.788,19.73,8.79,24.814,16.464.141.213.288.565.43.905.224.538.418,1.002.686,1.239.351.312,1.201.558,2.56.932.946.261,1.925.531,2.459.802,5.567,2.824,13.001,12.111,15.928,18.527.286.625.563,1.493.832,2.332.365,1.142.742,2.323,1.184,3.046.291.477.801.959,1.294,1.425.38.36.774.732,1.033,1.072l.075.099c3.487,4.58,7.826,10.28,7.092,17.08-.209,1.943-1.212,8.573-5.299,12.312-.356.326-.719.625-1.086.906-.13.1-.18.274-.123.428,9.653,25.903,13.156,53.651,10.413,82.47-17.141,12.586-35.216,21.705-55.241,27.867l.004.002Z" fill="#fff"/>
      <g id="Eyes">
        <path d="M70.296,94.707c12.172,0,21.982,10.986,21.773,24.384,0,13.378-9.601,24.365-21.773,24.365-11.963,0-21.773-10.987-21.773-24.365s9.601-24.384,21.773-24.384Z"/>
        <path d="M148.253,94.707c12.172,0,21.982,10.986,21.773,24.384,0,13.378-9.601,24.365-21.773,24.365-11.963,0-21.773-10.987-21.773-24.365s9.601-24.384,21.773-24.384Z"/>
      </g>
      <g id="uuid-551f82f3-27b2-4d0a-b3dc-4f3f966ec858" data-name="Layer 2-2">
        <g clip-path="url(#clippath)">
          <path d="M482.79-320.003V360.644H-426.061V-320.003H482.79Z" fill="url(#linear-gradient)"/>
        </g>
      </g>
      <g id="Layer_4" data-name="Layer 4">
        <path d="M180.874,27.53c1.199-.118,1.945.182,2.963.351,2.9.48,10.482,4.734,12.213,8.866.338.634.559,1.005.876,1.402,2.135,2.671,4.072,5.652,5.182,9.333-1.1-.162-1.889-1.036-3.024-1.309-3.351-.804-2.883-1.114-5.713-3.08-1.049-.728-2.509-1.021-3.447-1.963-1.1-1.104-2.228-4.448-3.262-6.063-1.791-2.795-4.303-4.725-6.424-7.015-.106-.793.254-.483.638-.521h-.002ZM149.801,8.721c.703-.184,2.166-.383,2.897-.443,8.065-.658,22.173,9.931,22.469,10.202.747.687,5.959,6.075,5.07,7.297-3.176,1.022-6.24-.656-9.397-1.044-1.225-.151-2.37.256-3.546.005-1.82-.387-3.662-3.402-5.149-4.631-1.703-1.407-6.076-5.066-7.192-6.014-.136-.115-.711-.374-.967-.565-1.254-.936-4.347-2.282-4.887-4.031-.181-.589.423-.703.704-.776,0,0-.002,0-.002,0ZM116.154,6.528c7.157-5.981,18.93-5.38,26.507-1.05,1.999,1.142,4.371,2.44,5.404,5.247-1.973.156-4.087-.203-6.044.01-3.392.368-6.568,2.361-10.038,2.09-1.345-.105-2.837-.798-4.152-1.002-.613-.095-2.544-.625-2.157,1.008,1.774.249,3.452,1.119,5.046,1.363,5.236.8,9.996-2.767,15.411-2.059,6.489.848,15.205,9.14,15.663,9.489.885.673,2.488,3.974,1.645,5.118-.467.634-3.555,2.5-4.292,2.738-1.405.454-3.135.24-4.494.538-1.22.267-2.561,1.352-3.628,1.398-3.895.166-6.303-4.248-9.972-5.725-1.879-.756-3.428-.59-5.153-1.042-2.319-.607-4.608-2.122-7.079-2.623-3.829-.775-7.756-.586-11.48.862-5.468-4.06-7.148-11.378-1.188-16.358v-.002ZM148.008,81.534c-5.863,2.125-15.918-1.811-22.062-3.447-.394-.105-1.053-.446-1.3.199.416.249.267.179,1.544.7,5.824,1.967,12.808,5.5,16.984,5.248-3.637.785-7.264,1.956-10.938,2.451-5.362.722-12.582,1.69-17.09-3.002-6.291-6.548-1.53-17.993,5.78-17.662,3.683.166,7.016,1.978,11.183,1.766,1.318-.067,2.574-.347,3.86-.7.592-.162,4.488-1.493,4.632-1.754.144-.262-.127-.904-.41-.987-.725-.21-4.461,1.18-5.641,1.334-5.134.674-14.759-.228-18.89-4.749-3.9-4.27-4.659-11.276-1.566-16.598,4.284-7.37,10.924-6.7,17.5-7.351.734-.765-.938-1.4-1.416-1.4l-6.036.308c-1.828,0-6.23,2.26-7.88,3.594-1.773,1.433-2.405,3.802-3.684-.266-1.554-4.945.046-9.912,3.06-12.737,6.361-5.963,12.835-2.467,19.49-.432,4.741,1.45,8.359.525,11.649,6.733,1.477,2.786,2.218,5.438.983,8.862-1.488,4.125-3.356,3.155-5.971,3.78-3.051.728-6.241,1.989-9.324,1.393-.84-.162-.614.101-.614,1.016,5.108,1.652,10.397-1.73,15.757-.954,3.723.54,7.362,2.722,9.207,7.255.036.089.332.211.455.593.523,1.621.766,3.757.56,5.514-.428,3.626-6.077,6.197-8.478,6.149.318,1.047,1.493.732,2.158.652,1.943-.234,3.719-1.334,5.562-2.054-.002,7.353-3.783,14.634-9.063,16.548h-.002v-.002ZM182.682,81.119l-13.336-3.871c-.592-2.117-1.643-6.963-3.4-7.708-.132-.056-.42-.096-.379.168.528,1.272,1.425,2.335,1.55,3.846.439,5.31-2.93,3.389-5.537,3.688-2.394.274-4.927,1.41-7.339,1.741,1.88-3.284,3.131-6.064,3.86-10.147.625-3.497.799-7.171,1.576-10.633,3.627-5.43,10.694-2.782,14.988-.167,3.694,2.25,6.717,4.863,8.915,9.401.471.972,1.034,1.584,1.363,2.872.918,3.593.779,9.391-2.261,10.813v-.002h0ZM198.508,84.234c.968-3.83,1.256-8.093-.206-11.796-.238-.602-2.576-4.598-2.062-2.097.445,2.165,1.583,3.589,1.763,6.354.16,2.456-.286,6.629-2.468,7.174-3.107.775-6.845-1.045-9.896-1.735.936-4.386,1.601-7.759.384-12.246-.442-1.628-1.967-4.041-1.943-5.41.038-2.187,1.422-3.425,2.59-4.395,4.794-3.98,10.562.436,14.158,5.072,1.172,1.511,2.314,3.037,3.332,4.644.034.054.339.592.665,1.113,5.413,8.64.667,13.935-6.314,13.323h-.003ZM196.111,58.616c-1.53-.958-3.971-1.239-5.198-2.381-1.443-1.342-2.005-4.573-2.908-6.546-3.54-7.731-13.809-12.648-20.265-11.677-.582.087-.892.12-.888,1.068,7.042.609,14.195,2.075,19.044,9.8,5.231,8.332-1.382,13.572-7.381,10.214-3.319-1.858-5.681-4.695-9.592-5.506-3.308-.686-7.779,1.03-10.578-1.015-1.2-.877-2.215-2.871-3.507-3.98-2.136-1.835-4.89-2.031-5.425-6.271-.196-1.551-.005-2.501.195-3.943.63-4.561,3.02-6.482,6.336-6.958,1.236-.177,2.483.151,3.715-.198,1.827-.517,3.612-2.919,5.527-3.66,7.893-3.06,18.107,1.868,21.995,11.866.03.077.497,1.518.577,1.749.434,1.237.428,1.246.438,1.804.519.142.734.214,1.206.336.607.157.812.182,1.124.312,4.543,1.901,7.366,5.614,10.037,10.852.39-.427.474-1.113.203-1.651l-2.518-4.999c5.13,1.407,11.613,9.588,14.009,15.77,1.065,2.747,1.185,3.866-.522,8.616l-15.627-13.604h.003v.002ZM41.508,27.53c-1.199-.118-1.945.182-2.963.351-2.9.48-10.482,4.734-12.213,8.866-.338.634-.559,1.005-.876,1.402-2.135,2.671-4.072,5.652-5.182,9.333,1.1-.162,1.889-1.036,3.024-1.309,3.351-.804,2.883-1.114,5.713-3.08,1.049-.728,2.509-1.021,3.447-1.963,1.1-1.104,2.228-4.448,3.262-6.063,1.791-2.795,4.303-4.725,6.424-7.015.106-.793-.254-.483-.638-.521h.002ZM72.58,8.721c-.703-.184-2.166-.383-2.897-.443-8.065-.658-22.173,9.931-22.469,10.202-.747.687-5.959,6.075-5.07,7.297,3.176,1.022,6.24-.656,9.397-1.044,1.225-.151,2.37.256,3.546.005,1.82-.387,3.662-3.402,5.149-4.631,1.703-1.407,6.076-5.066,7.192-6.014.136-.115.711-.374.967-.565,1.254-.936,4.347-2.282,4.887-4.031.181-.589-.423-.703-.704-.776,0,0,.002,0,.002,0ZM106.228,6.528c-7.157-5.981-18.93-5.38-26.507-1.05-1.999,1.142-4.371,2.44-5.404,5.247,1.973.156,4.087-.203,6.044.01,3.392.368,6.568,2.361,10.038,2.09,1.345-.105,2.837-.798,4.151-1.002.613-.095,2.544-.625,2.157,1.008-1.774.249-3.452,1.119-5.046,1.363-5.236.8-9.996-2.767-15.411-2.059-6.489.848-15.205,9.14-15.663,9.489-.885.673-2.488,3.974-1.645,5.118.467.634,3.555,2.5,4.292,2.738,1.405.454,3.135.24,4.494.538,1.22.267,2.561,1.352,3.628,1.398,3.895.166,6.303-4.248,9.972-5.725,1.879-.756,3.428-.59,5.153-1.042,2.319-.607,4.608-2.122,7.079-2.623,3.829-.775,7.756-.586,11.48.862,5.468-4.06,7.148-11.378,1.188-16.358v-.002ZM74.373,81.534c5.863,2.125,15.918-1.811,22.062-3.447.394-.105,1.053-.446,1.3.199-.416.249-.267.179-1.544.7-5.824,1.967-12.808,5.5-16.984,5.248,3.637.785,7.264,1.956,10.938,2.451,5.362.722,12.582,1.69,17.09-3.002,6.291-6.548,1.53-17.993-5.78-17.662-3.683.166-7.016,1.978-11.183,1.766-1.318-.067-2.574-.347-3.86-.7-.592-.162-4.488-1.493-4.632-1.754-.144-.262.127-.904.41-.987.725-.21,4.461,1.18,5.641,1.334,5.134.674,14.759-.228,18.89-4.749,3.9-4.27,4.659-11.276,1.566-16.598-4.284-7.37-10.924-6.7-17.5-7.351-.734-.765.938-1.4,1.416-1.4l6.036.308c1.828,0,6.23,2.26,7.88,3.594,1.773,1.433,2.405,3.802,3.684-.266,1.554-4.945-.046-9.912-3.06-12.737-6.361-5.963-12.835-2.467-19.49-.432-4.741,1.45-8.359.525-11.649,6.733-1.477,2.786-2.218,5.438-.983,8.862,1.488,4.125,3.356,3.155,5.971,3.78,3.051.728,6.241,1.989,9.324,1.393.84-.162.614.101.614,1.016-5.108,1.652-10.397-1.73-15.757-.954-3.723.54-7.362,2.722-9.207,7.255-.036.089-.332.211-.455.593-.523,1.621-.766,3.757-.56,5.514.428,3.626,6.077,6.197,8.478,6.149-.318,1.047-1.493.732-2.158.652-1.943-.234-3.719-1.334-5.562-2.054.002,7.353,3.783,14.634,9.063,16.548h.002v-.002ZM39.7,81.119l13.336-3.871c.592-2.117,1.643-6.963,3.4-7.708.132-.056.42-.096.379.168-.528,1.272-1.425,2.335-1.55,3.846-.439,5.31,2.93,3.389,5.537,3.688,2.394.274,4.927,1.41,7.339,1.741-1.88-3.284-3.131-6.064-3.86-10.147-.625-3.497-.799-7.171-1.576-10.633-3.627-5.43-10.694-2.782-14.988-.167-3.694,2.25-6.717,4.863-8.915,9.401-.471.972-1.034,1.584-1.363,2.872-.918,3.593-.779,9.391,2.261,10.813v-.002h0ZM23.874,84.234c-.968-3.83-1.256-8.093.206-11.796.238-.602,2.576-4.598,2.062-2.097-.445,2.165-1.583,3.589-1.763,6.354-.16,2.456.286,6.629,2.468,7.174,3.107.775,6.845-1.045,9.896-1.735-.936-4.386-1.601-7.759-.384-12.246.442-1.628,1.967-4.041,1.943-5.41-.038-2.187-1.422-3.425-2.59-4.395-4.794-3.98-10.562.436-14.158,5.072-1.172,1.511-2.314,3.037-3.332,4.644-.034.054-.339.592-.665,1.113-5.413,8.64-.667,13.935,6.314,13.323h.003ZM26.271,58.616c1.53-.958,3.971-1.239,5.198-2.381,1.443-1.342,2.005-4.573,2.908-6.545,3.54-7.731,13.809-12.648,20.265-11.677.582.087.892.12.888,1.068-7.042.609-14.195,2.075-19.044,9.8-5.231,8.332,1.382,13.572,7.381,10.214,3.319-1.858,5.681-4.695,9.592-5.506,3.308-.686,7.779,1.03,10.578-1.015,1.2-.877,2.215-2.871,3.507-3.98,2.136-1.835,4.89-2.031,5.425-6.271.196-1.551.005-2.501-.195-3.943-.63-4.561-3.02-6.482-6.336-6.958-1.236-.177-2.483.151-3.715-.198-1.827-.517-3.612-2.919-5.527-3.66-7.893-3.06-18.107,1.868-21.995,11.866-.03.077-.497,1.518-.577,1.749-.434,1.237-.428,1.246-.438,1.804-.519.142-.734.214-1.206.336-.607.157-.812.182-1.124.312-4.543,1.901-7.366,5.614-10.037,10.852-.39-.427-.474-1.113-.203-1.651l2.518-4.999c-5.13,1.407-11.613,9.588-14.009,15.77-1.065,2.747-1.185,3.866.522,8.616l15.627-13.604h-.003,0Z" fill="none" stroke="#fff" stroke-linejoin="round" stroke-width="2"/>
      </g>
    </g>
  </g>
</svg>