<svg xmlns="http://www.w3.org/2000/svg" version="1.1" xmlns:xlink="http://www.w3.org/1999/xlink" width="232" height="208"><svg xmlns="http://www.w3.org/2000/svg" version="1.1" xmlns:xlink="http://www.w3.org/1999/xlink" width="232" height="208"><svg xmlns="http://www.w3.org/2000/svg" xmlns:xlink="http://www.w3.org/1999/xlink" width="232" height="208">
  <path fill="white" transform="matrix(1.00483 0 0 1.00483 116.043 117.387)" d="M51.3555 85.248C46.8195 79.132 42.7315 72.508 39.2035 65.56C39.2035 65.56 37.9365 63.066 37.9365 63.066C37.9365 63.066 40.5565 62.087 40.5565 62.087C45.7595 60.142 50.8525 57.803 55.7415 55.115C55.5885 54.994 55.4355 54.872 55.2825 54.75C37.5645 62.769 19.0155 66.833 0.1215 66.833C-18.7725 66.833 -37.4285 62.769 -55.3525 54.749C-55.5055 54.872 -55.6605 54.995 -55.8145 55.117C-50.9215 57.804 -45.8445 60.137 -40.6735 62.07C-40.6735 62.07 -38.0565 63.049 -38.0565 63.049C-38.0565 63.049 -39.3185 65.542 -39.3185 65.542C-42.7775 72.372 -46.8655 78.995 -51.4685 85.229C-51.4685 85.229 -52.5205 86.653 -52.5205 86.653C-52.5205 86.653 -54.2125 86.134 -54.2125 86.134C-74.6675 79.864 -93.1345 70.556 -110.669 57.675C-110.669 57.675 -111.572 57.012 -111.572 57.012C-111.572 57.012 -111.677 55.897 -111.677 55.897C-116.038 9.908 -105.225 -31.673 -78.6195 -71.226C-78.6195 -71.226 -78.2285 -71.807 -78.2285 -71.807C-78.2285 -71.807 -77.5925 -72.1 -77.5925 -72.1C-62.9545 -78.856 -47.4495 -83.657 -31.5085 -86.371C-31.5085 -86.371 -29.7795 -86.665 -29.7795 -86.665C-29.7795 -86.665 -28.9145 -85.14 -28.9145 -85.14C-27.1395 -82.012 -25.1775 -78.12 -23.6725 -74.77C-15.8885 -75.853 -7.9835 -76.401 -0.1475 -76.401C7.6885 -76.401 15.6795 -75.851 23.6065 -74.766C25.1545 -78.24 27.0955 -82.139 28.7785 -85.132C28.7785 -85.132 29.6415 -86.667 29.6415 -86.667C29.6415 -86.667 31.3775 -86.371 31.3775 -86.371C47.3095 -83.656 62.8015 -78.866 77.4245 -72.136C77.4245 -72.136 78.0555 -71.845 78.0555 -71.845C78.0555 -71.845 78.4465 -71.271 78.4465 -71.271C105.195 -31.97 116.038 9.627 111.596 55.898C111.596 55.898 111.49 57.011 111.49 57.011C111.49 57.011 110.59 57.673 110.59 57.673C93.0695 70.56 74.5915 79.875 54.0975 86.15C54.0975 86.15 52.4095 86.667 52.4095 86.667L51.3575 85.249C51.3575 85.249 51.3555 85.248 51.3555 85.248Z"></path>
  <path transform="matrix(1.00483 0 0 1.00483 114.927 117.461)" d="M32.0675 -83.9805C47.9985 -81.2655 63.2375 -76.4985 77.4895 -69.9385C102.408 -33.3275 114.79 7.9615 110.218 55.5845C91.1535 69.6085 72.6585 78.1175 54.4755 83.6855C49.9725 77.6125 45.9905 71.1405 42.5445 64.3545C49.1075 61.9005 55.4105 58.8725 61.3675 55.3405C59.8095 54.1925 58.2675 52.9915 56.7615 51.7555C38.8645 60.0895 20.0765 64.2575 1.2335 64.2575C-17.6095 64.2575 -36.5055 60.0905 -54.6195 51.7555C-56.1085 52.9915 -57.6495 54.1915 -59.2255 55.3405C-53.2855 58.8545 -47.0005 61.8825 -40.4375 64.3355C-43.8835 71.1385 -47.8835 77.5935 -52.3685 83.6665C-70.5335 78.0985 -89.0105 69.5895 -108.076 55.5835C-111.973 14.5025 -104.181 -27.1705 -75.4345 -69.9045C-61.1835 -76.4815 -45.9275 -81.2665 -29.9785 -83.9815C-28.0045 -80.5015 -25.6665 -75.8205 -24.0905 -72.0975C-15.7785 -73.3505 -7.4275 -73.9765 0.9625 -73.9765C9.3525 -73.9765 17.7815 -73.3505 26.2485 -72.0975C27.8255 -75.8215 30.1105 -80.5025 32.0675 -83.9815M29.4355 -89.5005C29.4355 -89.5005 27.7095 -86.4305 27.7095 -86.4305C26.2625 -83.8565 24.6295 -80.6305 23.2065 -77.5595C15.7775 -78.4995 8.3115 -78.9745 0.9625 -78.9745C-6.3865 -78.9745 -13.7615 -78.5015 -21.0615 -77.5655C-22.4615 -80.5545 -24.1135 -83.7755 -25.6295 -86.4475C-25.6295 -86.4475 -27.3605 -89.4975 -27.3605 -89.4975C-27.3605 -89.4975 -30.8175 -88.9085 -30.8175 -88.9085C-46.9735 -86.1585 -62.6905 -81.2915 -77.5295 -74.4425C-77.5295 -74.4425 -78.8015 -73.8555 -78.8015 -73.8555C-78.8015 -73.8555 -79.5835 -72.6935 -79.5835 -72.6935C-106.525 -32.6435 -117.473 9.4715 -113.054 56.0565C-113.054 56.0565 -112.842 58.2875 -112.842 58.2875C-112.842 58.2875 -111.036 59.6145 -111.036 59.6145C-93.2735 72.6635 -74.5615 82.0955 -53.8335 88.4485C-53.8335 88.4485 -50.4495 89.4855 -50.4495 89.4855C-50.4495 89.4855 -48.3465 86.6385 -48.3465 86.6385C-43.6615 80.2945 -39.4995 73.5515 -35.9775 66.5965C-35.9775 66.5965 -34.8295 64.3305 -34.8295 64.3305C-22.9935 67.6065 -10.9295 69.2585 1.2325 69.2585C13.3205 69.2585 25.2695 67.6265 36.9535 64.3905C36.9535 64.3905 38.0845 66.6185 38.0845 66.6185C41.6745 73.6875 45.8365 80.4325 50.4575 86.6635C50.4575 86.6635 52.5605 89.5005 52.5605 89.5005C52.5605 89.5005 55.9375 88.4665 55.9375 88.4665C76.7045 82.1075 95.4285 72.6695 113.178 59.6125C113.178 59.6125 114.979 58.2875 114.979 58.2875C114.979 58.2875 115.193 56.0625 115.193 56.0625C117.473 32.3125 115.638 9.2075 109.738 -12.6115C104.465 -32.1055 95.7885 -51.1565 83.9225 -69.3015C83.9225 -69.3015 86.0985 -71.4775 86.0985 -71.4775C86.0985 -71.4775 79.5785 -74.4795 79.5785 -74.4795C64.7565 -81.3025 49.0535 -86.1565 32.9065 -88.9085C32.9065 -88.9085 29.4345 -89.5005 29.4345 -89.5005L29.4355 -89.5005Z"></path>
  <path fill="white" transform="matrix(1.00483 0 0 1.00483 117.489 51.2037)" d="M1.8995 47.8575C1.2555 47.8575 0.6085 47.8535 -0.0355 47.8445C-0.6125 47.8535 -1.2575 47.8575 -1.9025 47.8575C-14.7005 47.8575 -26.6285 46.0935 -35.4885 42.8905C-37.5965 42.1285 -39.5315 41.2095 -41.4035 40.3215C-44.9305 38.6475 -48.2625 37.0675 -52.1095 36.8935C-52.3805 36.8815 -52.6515 36.8755 -52.9245 36.8755C-57.7195 36.8755 -63.1405 38.6415 -68.8805 40.5115C-74.8875 42.4695 -81.0995 44.4925 -86.9665 44.4925C-92.1995 44.4925 -96.4795 42.9045 -100.049 39.6385C-104.748 35.3395 -105.962 28.3275 -106.266 25.5135C-107.123 17.5715 -102.194 11.1005 -98.5955 6.3755C-98.5955 6.3755 -98.5255 6.2845 -98.5255 6.2845C-98.1265 5.7595 -97.6455 5.3045 -97.1815 4.8645C-96.8995 4.5975 -96.4735 4.1955 -96.3635 4.0265C-95.8055 3.1135 -95.4575 1.9425 -95.1205 0.8085C-94.9445 0.2185 -94.7745 -0.3465 -94.5895 -0.8585C-91.5825 -9.1415 -83.2065 -17.9295 -77.2705 -20.9405C-76.4785 -21.3425 -75.4075 -21.6375 -74.2735 -21.9505C-73.8805 -22.0585 -73.3525 -22.2045 -72.9715 -22.3255C-72.9535 -22.3685 -72.9365 -22.4115 -72.9185 -22.4555C-72.7335 -22.8995 -72.5235 -23.4015 -72.2305 -23.8435C-66.6625 -32.2495 -53.8325 -40.7035 -45.3135 -41.5795C-44.9365 -41.6185 -44.5365 -41.6365 -44.1195 -41.6365C-42.9865 -41.6365 -41.7905 -41.5085 -40.6335 -41.3845C-39.6355 -41.2775 -38.6935 -41.1765 -37.9565 -41.1765C-37.7305 -41.1765 -37.5665 -41.1865 -37.4495 -41.1985C-36.9985 -41.4415 -35.9565 -42.2165 -35.3155 -42.6935C-34.2475 -43.4885 -33.2375 -44.2395 -32.4105 -44.6545C-28.2935 -46.7195 -23.2175 -47.8575 -18.1185 -47.8575C-12.1825 -47.8575 -6.7405 -46.2745 -2.7925 -43.4005C-1.7285 -42.6275 -0.8155 -41.7255 -0.0005 -40.7725C0.8145 -41.7255 1.7275 -42.6265 2.7915 -43.4005C6.7385 -46.2745 12.1815 -47.8565 18.1175 -47.8565C23.2165 -47.8565 28.2925 -46.7195 32.4095 -44.6545C33.2375 -44.2385 34.2465 -43.4875 35.3145 -42.6935C35.9555 -42.2165 36.9975 -41.4415 37.4485 -41.1985C37.5655 -41.1865 37.7305 -41.1765 37.9565 -41.1765C38.6935 -41.1765 39.6355 -41.2785 40.6325 -41.3845C41.7895 -41.5085 42.9865 -41.6365 44.1185 -41.6365C44.5355 -41.6365 44.9355 -41.6185 45.3115 -41.5795C53.8315 -40.7045 66.6615 -32.2495 72.2295 -23.8425C72.5215 -23.4025 72.7305 -22.9005 72.9155 -22.4585C72.9345 -22.4145 72.9525 -22.3695 72.9705 -22.3255C73.3505 -22.2045 73.8795 -22.0585 74.2735 -21.9505C75.4065 -21.6385 76.4765 -21.3435 77.2685 -20.9415C83.5305 -17.7655 91.3825 -7.9055 94.5125 -1.0445C94.8695 -0.2635 95.1735 0.6875 95.4675 1.6065C95.7515 2.4955 96.1045 3.6005 96.3665 4.0295C96.4725 4.1935 96.8995 4.5955 97.1815 4.8625C97.6465 5.3015 98.1265 5.7555 98.5275 6.2825C98.5275 6.2825 98.6015 6.3795 98.6015 6.3795C102.198 11.1035 107.123 17.5725 106.267 25.5115C105.963 28.3275 104.746 35.3395 100.049 39.6365C96.4795 42.9035 92.1995 44.4905 86.9675 44.4905C81.1005 44.4905 74.8885 42.4665 68.8815 40.5095C63.1425 38.6395 57.7215 36.8735 52.9265 36.8735C52.6535 36.8735 52.3805 36.8795 52.1115 36.8915C48.2635 37.0645 44.9325 38.6455 41.4055 40.3195C39.5335 41.2075 37.5975 42.1265 35.4895 42.8885C26.6295 46.0915 14.7005 47.8555 1.9035 47.8555C1.9035 47.8555 1.8995 47.8575 1.8995 47.8575Z"></path>
  <path transform="matrix(1.00483 0 0 1.00483 117.488 51.2062)" d="M18.1165 -45.357C22.8365 -45.357 27.5645 -44.288 31.2875 -42.42C32.7295 -41.697 35.8225 -38.947 36.8445 -38.761C37.1715 -38.701 37.5465 -38.677 37.9555 -38.677C39.7375 -38.677 42.1645 -39.138 44.1165 -39.138C44.4445 -39.138 44.7595 -39.125 45.0545 -39.095C52.7215 -38.307 64.9965 -30.235 70.1435 -22.465C70.5125 -21.909 70.8345 -20.715 71.1955 -20.395C71.7695 -19.884 74.9295 -19.327 76.1355 -18.715C81.5945 -15.946 89.1745 -6.721 92.2355 -0.009C92.9165 1.483 93.4925 4.122 94.2295 5.33C94.7135 6.122 95.9215 6.988 96.5355 7.795C100.013 12.362 104.534 18.243 103.779 25.241C103.346 29.246 101.82 34.624 98.3595 37.79C94.9885 40.874 91.1145 41.989 86.9645 41.989C76.1185 41.989 63.3985 34.372 52.9235 34.372C52.6125 34.372 52.3025 34.379 51.9965 34.393C45.4945 34.686 40.6705 38.355 34.6375 40.536C25.5485 43.822 13.7845 45.355 1.8965 45.355C1.2645 45.355 0.6315 45.351 -0.0005 45.342C-0.6335 45.351 -1.2645 45.355 -1.8975 45.355C-13.7845 45.355 -25.5495 43.822 -34.6385 40.536C-40.6715 38.355 -45.4955 34.686 -51.9975 34.393C-52.3045 34.379 -52.6135 34.372 -52.9245 34.372C-63.4005 34.372 -76.1205 41.989 -86.9665 41.989C-91.1155 41.989 -94.9925 40.874 -98.3615 37.79C-101.823 34.623 -103.348 29.246 -103.78 25.241C-104.535 18.243 -100.015 12.362 -96.5365 7.795C-95.9225 6.988 -94.7155 6.121 -94.2315 5.33C-93.1845 3.617 -92.7995 1.539 -92.2375 -0.009C-89.4935 -7.568 -81.5965 -15.946 -76.1375 -18.715C-74.9315 -19.327 -71.7715 -19.884 -71.1965 -20.395C-70.8365 -20.715 -70.5145 -21.909 -70.1455 -22.465C-64.9985 -30.235 -52.7235 -38.308 -45.0565 -39.095C-44.7605 -39.125 -44.4465 -39.138 -44.1185 -39.138C-42.1665 -39.138 -39.7385 -38.677 -37.9575 -38.677C-37.5485 -38.677 -37.1735 -38.701 -36.8465 -38.761C-35.8235 -38.947 -32.7315 -41.697 -31.2895 -42.42C-27.5655 -44.288 -22.8385 -45.357 -18.1185 -45.357C-13.0835 -45.357 -8.0565 -44.14 -4.2645 -41.38C-2.5945 -40.165 -1.3055 -38.516 -0.0235 -36.655C-0.0165 -36.668 -0.0085 -36.679 -0.0025 -36.692C0.0045 -36.679 0.0125 -36.668 0.0185 -36.655C1.3005 -38.516 2.5895 -40.165 4.2595 -41.38C8.0525 -44.141 13.0785 -45.358 18.1135 -45.357M18.1165 -50.357C13.5465 -50.357 6.9225 -49.501 1.3195 -45.422C0.8535 -45.083 0.4145 -44.725 -0.0005 -44.355C-0.4155 -44.726 -0.8545 -45.083 -1.3215 -45.423C-5.6925 -48.604 -11.6575 -50.357 -18.1175 -50.357C-23.5985 -50.357 -29.0725 -49.126 -33.5305 -46.889C-34.5545 -46.375 -35.6485 -45.561 -36.8075 -44.699C-37.2005 -44.406 -37.7775 -43.977 -38.2045 -43.681C-38.7955 -43.702 -39.5925 -43.787 -40.3665 -43.87C-41.5885 -44.001 -42.8525 -44.137 -44.1185 -44.137C-44.6385 -44.137 -45.1125 -44.114 -45.5675 -44.067C-54.7025 -43.128 -68.4045 -34.147 -74.3145 -25.224C-74.4975 -24.948 -74.6515 -24.671 -74.7845 -24.403C-74.8375 -24.388 -74.8885 -24.374 -74.9365 -24.361C-76.1395 -24.029 -77.3835 -23.686 -78.4005 -23.17C-84.7355 -19.957 -93.6245 -10.839 -96.9375 -1.712C-97.1585 -1.104 -97.3395 -0.494 -97.5155 0.096C-97.7855 1.003 -98.0635 1.939 -98.4135 2.579C-98.5355 2.705 -98.7485 2.907 -98.8995 3.049C-99.3855 3.509 -99.9915 4.082 -100.516 4.77C-100.516 4.77 -100.587 4.863 -100.587 4.863C-104.438 9.922 -109.715 16.85 -108.751 25.781C-108.417 28.878 -107.065 36.608 -101.737 41.482C-97.7405 45.138 -92.7715 46.992 -86.9655 46.992C-80.7015 46.992 -74.2975 44.906 -68.1045 42.888C-62.5595 41.081 -57.3215 39.375 -52.9235 39.375C-52.6875 39.375 -52.4535 39.38 -52.2205 39.391C-48.8775 39.542 -45.9105 40.95 -42.4745 42.58C-40.5495 43.494 -38.5585 44.438 -36.3365 45.241C-27.2105 48.54 -14.9785 50.357 -1.8965 50.357C-1.2635 50.357 -0.6325 50.353 0.0005 50.344C0.6325 50.352 1.2655 50.357 1.8975 50.357C14.9805 50.357 27.2115 48.54 36.3375 45.241C38.5595 44.438 40.5505 43.493 42.4755 42.58C45.9115 40.95 48.8785 39.542 52.2225 39.391C52.4545 39.381 52.6895 39.375 52.9245 39.375C57.3225 39.375 62.5595 41.081 68.1045 42.888C74.2975 44.906 80.7015 46.992 86.9655 46.992C92.7705 46.992 97.7405 45.138 101.737 41.483C107.062 36.61 108.417 28.879 108.752 25.782C109.715 16.85 104.438 9.922 100.587 4.863C100.587 4.863 100.516 4.769 100.516 4.769C99.9935 4.082 99.3865 3.508 98.8985 3.047C98.7655 2.921 98.5825 2.749 98.4585 2.623C98.2845 2.21 98.0175 1.373 97.8485 0.845C97.5325 -0.144 97.2055 -1.167 96.7865 -2.084C93.4165 -9.473 85.2235 -19.711 78.4005 -23.171C77.3845 -23.686 76.1415 -24.029 74.9385 -24.361C74.8895 -24.374 74.8385 -24.388 74.7855 -24.403C74.6515 -24.671 74.4975 -24.948 74.3145 -25.224C68.4045 -34.147 54.7025 -43.128 45.5685 -44.067C45.1115 -44.114 44.6385 -44.137 44.1185 -44.137C42.8525 -44.137 41.5885 -44.001 40.3665 -43.87C39.5925 -43.787 38.7955 -43.701 38.2045 -43.681C37.7775 -43.977 37.2005 -44.406 36.8075 -44.699C35.6485 -45.561 34.5545 -46.376 33.5315 -46.889C29.0715 -49.125 23.5975 -50.357 18.1165 -50.357Z"></path>
  <path transform="matrix(0.996662 0 0 0.982094 116.046 118.079)" d="M-37.8565 31.712C-49.0105 31.712 -58.1575 21.316 -58.1575 8.657C-58.1575 -4.002 -49.2055 -14.416 -37.8565 -14.416C-26.5075 -14.416 -17.3605 -4.021 -17.5555 8.657C-17.5375 21.316 -26.5065 31.712 -37.8565 31.712ZM37.1655 31.712C26.0115 31.712 16.8645 21.316 16.8645 8.657C16.8645 -4.002 25.8155 -14.416 37.1655 -14.416C48.5155 -14.416 57.6615 -4.021 57.4665 8.657C57.4665 21.316 48.5145 31.712 37.1655 31.712Z"></path>
  <clipPath id="cl_3">
    <path d="M187.025 34.6538C188.227 34.5354 188.974 34.8358 189.995 35.0053C192.901 35.4867 200.5 39.7492 202.234 43.8903C202.573 44.5258 202.794 44.8975 203.111 45.2951C205.251 47.9718 207.192 50.9595 208.305 54.6481C207.203 54.4854 206.412 53.6102 205.274 53.3367C201.915 52.5308 202.384 52.2198 199.548 50.2499C198.496 49.5201 197.034 49.2264 196.094 48.2828C194.992 47.1765 193.861 43.8249 192.824 42.2063C191.029 39.4054 188.512 37.4711 186.386 35.1757C186.28 34.3814 186.641 34.6914 187.025 34.6538ZM155.884 15.8044C156.589 15.6195 158.055 15.4202 158.787 15.3605C166.87 14.701 181.009 25.3134 181.305 25.5849C182.053 26.2733 187.277 31.6729 186.386 32.8976C183.204 33.9221 180.132 32.24 176.969 31.851C175.741 31.6999 174.593 32.1071 173.415 31.8558C171.591 31.4678 169.745 28.4464 168.255 27.215C166.548 25.8054 162.165 22.1379 161.047 21.1876C160.912 21.0721 160.335 20.8131 160.078 20.6215C158.822 19.6836 155.721 18.3347 155.181 16.5814C154.999 15.9912 155.605 15.8766 155.886 15.8034C155.886 15.8034 155.884 15.8044 155.884 15.8044ZM122.163 13.6062C129.336 7.61256 141.135 8.21433 148.728 12.5538C150.731 13.6987 153.108 14.9995 154.144 17.8119C152.166 17.9679 150.048 17.6087 148.087 17.8215C144.687 18.1903 141.504 20.1872 138.026 19.9157C136.679 19.8107 135.183 19.1156 133.866 18.9115C133.251 18.8161 131.317 18.2846 131.704 19.9215C133.483 20.1708 135.164 21.0432 136.761 21.2877C142.008 22.0898 146.779 18.5148 152.205 19.2244C158.708 20.0746 167.444 28.3848 167.903 28.7343C168.79 29.4093 170.396 32.7166 169.551 33.8633C169.083 34.4988 165.989 36.3687 165.25 36.6074C163.842 37.0629 162.109 36.8482 160.746 37.1466C159.524 37.4143 158.18 38.5013 157.111 38.5476C153.207 38.7141 150.793 34.2899 147.117 32.81C145.234 32.0523 143.681 32.2188 141.953 31.7653C139.628 31.1568 137.335 29.6384 134.858 29.1368C131.021 28.3598 127.085 28.5495 123.353 30.0005C117.873 25.9315 116.19 18.5976 122.163 13.6062ZM154.087 88.7759C148.212 90.9057 138.135 86.9609 131.977 85.3212C131.582 85.2163 130.922 84.8745 130.675 85.5205C131.092 85.7699 130.942 85.6996 132.222 86.2224C138.059 88.1934 145.059 91.7347 149.244 91.4815C145.599 92.2681 141.964 93.4418 138.281 93.9377C132.907 94.6617 125.672 95.6313 121.155 90.9288C114.85 84.3661 119.621 72.8968 126.947 73.228C130.637 73.3946 133.978 75.2105 138.154 74.9977C139.476 74.9303 140.734 74.6501 142.023 74.2958C142.616 74.1331 146.521 72.7995 146.665 72.5376C146.81 72.2748 146.538 71.6316 146.254 71.5488C145.527 71.3379 141.783 72.7312 140.6 72.8862C135.455 73.5621 125.809 72.658 121.668 68.1269C117.76 63.848 116.999 56.8261 120.099 51.4929C124.393 44.107 131.047 44.7781 137.638 44.1262C138.373 43.3598 136.698 42.7234 136.219 42.7234C136.219 42.7234 130.169 43.0324 130.169 43.0324C128.337 43.0324 123.926 45.297 122.272 46.6344C120.496 48.071 119.862 50.4444 118.581 46.3677C117.023 41.412 118.627 36.4341 121.647 33.6024C128.022 27.6261 134.51 31.1299 141.18 33.1691C145.931 34.6221 149.556 33.6949 152.854 39.9167C154.335 42.7089 155.077 45.3664 153.839 48.7979C152.348 52.9323 150.476 51.9599 147.855 52.5857C144.798 53.3156 141.601 54.5788 138.511 53.9818C137.669 53.8191 137.896 54.0829 137.896 55.0005C143.015 56.6566 148.316 53.2664 153.687 54.0444C157.418 54.5855 161.065 56.7721 162.914 61.3148C162.95 61.4044 163.247 61.5266 163.37 61.9089C163.894 63.5332 164.138 65.6745 163.931 67.4346C163.502 71.0683 157.84 73.6449 155.435 73.5968C155.753 74.6462 156.931 74.3304 157.597 74.2505C159.545 74.0156 161.324 72.9141 163.172 72.192C163.17 79.5606 159.38 86.8579 154.089 88.7759C154.089 88.7759 154.087 88.7759 154.087 88.7759ZM188.837 88.3599C188.837 88.3599 175.472 84.4807 175.472 84.4807C174.879 82.3586 173.825 77.502 172.064 76.7558C171.932 76.7 171.643 76.6595 171.684 76.9243C172.214 78.1991 173.113 79.264 173.238 80.7786C173.678 86.1002 170.302 84.1754 167.689 84.4749C165.29 84.7493 162.751 85.8883 160.334 86.2196C162.218 82.9286 163.472 80.1421 164.202 76.0501C164.829 72.5453 165.003 68.8634 165.782 65.3934C169.416 59.9514 176.499 62.605 180.802 65.2258C184.504 67.4808 187.533 70.0997 189.737 74.6472C190.209 75.6216 190.773 76.2349 191.103 77.5251C192.023 81.1261 191.883 86.9369 188.837 88.3619C188.837 88.3619 188.837 88.3599 188.837 88.3599ZM204.697 91.4824C205.668 87.6436 205.956 83.3715 204.491 79.6607C204.253 79.057 201.91 75.0526 202.424 77.5588C202.87 79.7291 204.011 81.156 204.191 83.927C204.351 86.388 203.905 90.5706 201.718 91.1165C198.604 91.8936 194.858 90.069 191.8 89.3777C192.738 84.9823 193.405 81.6018 192.185 77.1053C191.743 75.4733 190.214 73.0556 190.238 71.6836C190.276 69.4922 191.663 68.2511 192.833 67.2786C197.638 63.2896 203.418 67.7157 207.022 72.3614C208.196 73.876 209.341 75.405 210.361 77.0158C210.395 77.0697 210.701 77.6089 211.027 78.1308C216.452 86.7896 211.695 92.0957 204.699 91.4824C204.699 91.4824 204.697 91.4824 204.697 91.4824ZM202.296 65.8084C200.762 64.8484 198.316 64.5663 197.086 63.4225C195.64 62.0774 195.078 58.8393 194.172 56.8626C190.624 49.1147 180.333 44.1869 173.862 45.1603C173.279 45.2479 172.968 45.2807 172.972 46.231C180.03 46.8414 187.198 48.3107 192.058 56.0529C197.3 64.4036 190.674 69.6549 184.661 66.2888C181.335 64.4267 178.968 61.5834 175.049 60.7708C171.733 60.0833 167.252 61.803 164.448 59.754C163.245 58.875 162.228 56.8771 160.933 55.765C158.792 53.926 156.033 53.7296 155.496 49.4806C155.3 47.9266 155.491 46.9743 155.692 45.5291C156.323 40.9585 158.718 39.0328 162.042 38.5562C163.281 38.3791 164.531 38.7074 165.765 38.3579C167.596 37.8399 169.385 35.4328 171.304 34.6895C179.214 31.6228 189.45 36.5612 193.347 46.5815C193.377 46.6585 193.845 48.1028 193.926 48.3338C194.36 49.574 194.354 49.5826 194.364 50.142C194.884 50.2845 195.1 50.3568 195.573 50.479C196.182 50.636 196.387 50.661 196.7 50.792C201.253 52.6974 204.082 56.4178 206.758 61.6672C207.149 61.2397 207.233 60.5522 206.961 60.0131C206.961 60.0131 204.437 55.0034 204.437 55.0034C209.579 56.414 216.076 64.6125 218.477 70.8084C219.544 73.5611 219.664 74.6828 217.954 79.4431C217.954 79.4431 202.293 65.8093 202.293 65.8093C202.293 65.8093 202.296 65.8084 202.296 65.8084ZM47.3537 34.6538C46.1518 34.5354 45.4043 34.8358 44.3842 35.0053C41.4782 35.4867 33.8792 39.7492 32.1448 43.8903C31.8057 44.5258 31.5849 44.8974 31.2673 45.2951C29.1274 47.9718 27.1869 50.9595 26.074 54.6481C27.1761 54.4854 27.9666 53.6102 29.105 53.3367C32.4633 52.5308 31.9943 52.2198 34.8309 50.2499C35.8823 49.52 37.345 49.2264 38.285 48.2828C39.3872 47.1765 40.5177 43.8248 41.5545 42.2063C43.3494 39.4054 45.8665 37.4711 47.9927 35.1757C48.0992 34.3813 47.7377 34.6914 47.3537 34.6538ZM78.4945 15.8044C77.79 15.6195 76.3233 15.4202 75.5914 15.3605C67.5087 14.701 53.3698 25.3133 53.0737 25.5849C52.3253 26.2733 47.1016 31.6729 47.9927 32.8976C51.1752 33.9221 54.2463 32.24 57.4102 31.851C58.6374 31.6998 59.7856 32.1071 60.964 31.8558C62.7882 31.4678 64.634 28.4464 66.1241 27.2149C67.8312 25.8054 72.2135 22.1379 73.3314 21.1876C73.4672 21.072 74.0437 20.813 74.3007 20.6214C75.5573 19.6836 78.6577 18.3347 79.198 16.5814C79.3797 15.9911 78.7739 15.8766 78.4925 15.8034C78.4925 15.8034 78.4945 15.8044 78.4945 15.8044ZM112.216 13.6062C105.043 7.61255 93.2441 8.21432 85.6509 12.5538C83.6478 13.6986 81.2705 14.9994 80.2347 17.8119C82.2124 17.9679 84.3308 17.6087 86.2919 17.8215C89.6913 18.1903 92.8747 20.1872 96.3523 19.9157C97.6998 19.8107 99.1957 19.1156 100.513 18.9114C101.127 18.8161 103.062 18.2846 102.674 19.9215C100.896 20.1708 99.2143 21.0432 97.6177 21.2877C92.3705 22.0898 87.6003 18.5148 82.1733 19.2244C75.6706 20.0745 66.9352 28.3848 66.4759 28.7343C65.5887 29.4093 63.9823 32.7166 64.8275 33.8633C65.2955 34.4988 68.3901 36.3686 69.1288 36.6074C70.5368 37.0628 72.2702 36.8481 73.6323 37.1466C74.8547 37.4143 76.1992 38.5013 77.2682 38.5475C81.1718 38.7141 83.5853 34.2899 87.2622 32.81C89.1451 32.0522 90.6977 32.2188 92.4262 31.7653C94.7508 31.1568 97.0441 29.6384 99.5211 29.1368C103.358 28.3598 107.294 28.5494 111.026 30.0005C116.505 25.9315 118.189 18.5976 112.216 13.6062ZM80.2914 88.7759C86.1668 90.9057 96.2438 86.9609 102.402 85.3212C102.796 85.2163 103.457 84.8745 103.704 85.5205C103.287 85.7699 103.436 85.6996 102.156 86.2224C96.3201 88.1934 89.32 91.7347 85.135 91.4814C88.7796 92.2681 92.4145 93.4418 96.0973 93.9376C101.471 94.6617 108.707 95.6313 113.224 90.9288C119.529 84.3661 114.757 72.8968 107.432 73.228C103.741 73.3945 100.401 75.2105 96.2243 74.9977C94.9032 74.9303 93.6447 74.6501 92.3559 74.2958C91.7628 74.133 87.8582 72.7995 87.7136 72.5376C87.569 72.2748 87.8406 71.6316 88.125 71.5488C88.8519 71.3379 92.5953 72.7312 93.7786 72.8862C98.9241 73.5621 108.57 72.658 112.71 68.1269C116.619 63.848 117.38 56.826 114.28 51.4929C109.986 44.107 103.332 44.7781 96.7412 44.1262C96.0054 43.3598 97.6812 42.7234 98.16 42.7234C98.16 42.7234 104.209 43.0324 104.209 43.0324C106.041 43.0324 110.453 45.297 112.106 46.6344C113.883 48.071 114.517 50.4444 115.798 46.3677C117.355 41.412 115.752 36.4341 112.732 33.6024C106.357 27.6261 99.869 31.1298 93.1991 33.1691C88.4474 34.6221 84.8223 33.6948 81.5245 39.9167C80.0442 42.7089 79.3016 45.3664 80.5396 48.7979C82.0307 52.9323 83.9028 51.9599 86.5235 52.5857C89.5809 53.3155 92.778 54.5788 95.8677 53.9818C96.7099 53.8191 96.4832 54.0829 96.4832 55.0005C91.3641 56.6566 86.0632 53.2664 80.692 54.0444C76.9604 54.5855 73.3138 56.7721 71.4651 61.3148C71.4289 61.4043 71.1319 61.5266 71.0088 61.9089C70.485 63.5332 70.2407 65.6745 70.4479 67.4346C70.8768 71.0683 76.5383 73.6449 78.9439 73.5967C78.6254 74.6462 77.448 74.3304 76.7816 74.2505C74.8342 74.0156 73.0548 72.9141 71.2071 72.192C71.2091 79.5606 74.9983 86.8579 80.2894 88.7759C80.2894 88.7759 80.2914 88.7759 80.2914 88.7759ZM45.5421 88.3599C45.5421 88.3599 58.9071 84.4807 58.9071 84.4807C59.5002 82.3586 60.5536 77.502 62.3143 76.7558C62.4463 76.7 62.7355 76.6595 62.6944 76.9243C62.1648 78.1991 61.2659 79.264 61.1408 80.7785C60.7011 86.1001 64.0771 84.1754 66.6899 84.4749C69.0887 84.7493 71.6273 85.8883 74.0447 86.2195C72.1608 82.9286 70.9071 80.1421 70.1762 76.05C69.5499 72.5453 69.376 68.8634 68.5972 65.3934C64.9623 59.9514 57.8802 62.605 53.5769 65.2258C49.8746 67.4808 46.8456 70.0997 44.6422 74.6472C44.1702 75.6216 43.6054 76.2349 43.2761 77.5251C42.3557 81.1261 42.4954 86.9368 45.5421 88.3618C45.5421 88.3618 45.5421 88.3599 45.5421 88.3599ZM29.6815 91.4824C28.7112 87.6436 28.423 83.3715 29.8876 79.6607C30.1261 79.057 32.4692 75.0525 31.9543 77.5588C31.5087 79.729 30.3674 81.156 30.1876 83.927C30.0274 86.388 30.4739 90.5706 32.6607 91.1165C35.7748 91.8935 39.5211 90.069 42.5785 89.3776C41.6404 84.9823 40.9741 81.6018 42.1935 77.1053C42.6361 75.4733 44.1643 73.0556 44.1409 71.6836C44.1028 69.4922 42.7163 68.2511 41.5457 67.2786C36.7412 63.2896 30.9605 67.7157 27.3569 72.3614C26.1824 73.876 25.0382 75.4049 24.0181 77.0158C23.9839 77.0697 23.6781 77.6089 23.3517 78.1307C17.9267 86.7895 22.6833 92.0957 29.6795 91.4824C29.6795 91.4824 29.6815 91.4824 29.6815 91.4824ZM32.0832 65.8083C33.6163 64.8484 36.063 64.5663 37.2923 63.4224C38.7384 62.0774 39.3012 58.8393 40.207 56.8626C43.7549 49.1147 54.046 44.1869 60.5164 45.1603C61.0998 45.2479 61.4105 45.2807 61.4066 46.231C54.3489 46.8414 47.1807 48.3107 42.3205 56.0529C37.0783 64.4036 43.7051 69.6549 49.7173 66.2888C53.0434 64.4267 55.411 61.5834 59.3302 60.7708C62.6456 60.0833 67.1267 61.8029 69.931 59.754C71.1338 58.875 72.151 56.8771 73.4457 55.765C75.5866 53.926 78.3459 53.7296 78.8824 49.4806C79.0788 47.9265 78.8873 46.9743 78.687 45.5291C78.0557 40.9585 75.6608 39.0328 72.3367 38.5562C71.0977 38.379 69.8479 38.7074 68.6138 38.3579C66.7827 37.8399 64.9936 35.4328 63.0745 34.6894C55.1648 31.6228 44.9285 36.5612 41.0317 46.5814C41.0014 46.6585 40.5334 48.1027 40.4532 48.3338C40.0184 49.5739 40.0243 49.5826 40.0145 50.142C39.4947 50.2845 39.2787 50.3567 38.8058 50.479C38.1971 50.636 37.9919 50.661 37.6792 50.7919C33.1258 52.6974 30.2971 56.4178 27.6207 61.6672C27.2299 61.2397 27.1459 60.5522 27.4175 60.013C27.4175 60.013 29.9414 55.0034 29.9414 55.0034C24.7998 56.4139 18.3029 64.6125 15.9021 70.8084C14.8351 73.5611 14.7149 74.6828 16.4249 79.4431C16.4249 79.4431 32.0862 65.8093 32.0862 65.8093C32.0862 65.8093 32.0832 65.8083 32.0832 65.8083Z"></path>
  </clipPath>
  <g clip-path="url(#cl_3)">
    <defs>
      <linearGradient id="gradient_0" gradientUnits="userSpaceOnUse" x1="-859.79297" y1="0" x2="859.79297" y2="0">
        <stop offset="0" stop-color="#00D4FF"></stop>
        <stop offset="0.07" stop-color="#3D51FF"></stop>
        <stop offset="0.14" stop-color="#DE3AFF"></stop>
        <stop offset="0.20999999" stop-color="#FD2032"></stop>
        <stop offset="0.29127139" stop-color="#FF9F0E"></stop>
        <stop offset="0.33775112" stop-color="#FF9E00"></stop>
        <stop offset="0.39985585" stop-color="#3AFF68"></stop>
        <stop offset="0.49000001" stop-color="#00D4FF"></stop>
        <stop offset="0.56" stop-color="#3D51FF"></stop>
        <stop offset="0.63999999" stop-color="#DE3AFF"></stop>
        <stop offset="0.70999998" stop-color="#FD2032"></stop>
        <stop offset="0.77999997" stop-color="#FFDC0E"></stop>
        <stop offset="0.85000002" stop-color="#FF9E1B"></stop>
        <stop offset="0.92000002" stop-color="#3AFF68"></stop>
        <stop offset="1" stop-color="#00D4FF"></stop>
      </linearGradient>
    </defs>
    <path fill="url(#gradient_0)" transform="matrix(1.90615e-08 1.5751 -1.62218 1.90615e-08 14.2322 -77.094)" d="M-859.793 -859.793L859.793 -859.793L859.793 859.793L-859.793 859.793L-859.793 -859.793Z"></path>
  </g>
  <path fill="none" stroke="white" stroke-width="2" stroke-linejoin="round" transform="matrix(-0.97712 -1.45384e-07 -1.47541e-07 0.962837 67.1218 51.6219)" d="M-122.711 -17.623C-123.941 -17.746 -124.706 -17.434 -125.75 -17.258C-128.724 -16.758 -136.501 -12.331 -138.276 -8.03C-138.623 -7.37 -138.849 -6.984 -139.174 -6.571C-141.364 -3.791 -143.35 -0.688004 -144.489 3.143C-143.361 2.974 -142.552 2.065 -141.387 1.781C-137.95 0.943997 -138.43 0.620997 -135.527 -1.425C-134.451 -2.183 -132.954 -2.488 -131.992 -3.468C-130.864 -4.617 -129.707 -8.098 -128.646 -9.779C-126.809 -12.688 -124.233 -14.697 -122.057 -17.081C-121.948 -17.906 -122.318 -17.584 -122.711 -17.623ZM-90.841 -37.2C-91.562 -37.392 -93.063 -37.599 -93.812 -37.661C-102.084 -38.346 -116.554 -27.324 -116.857 -27.042C-117.623 -26.327 -122.969 -20.719 -122.057 -19.447C-118.8 -18.383 -115.657 -20.13 -112.419 -20.534C-111.163 -20.691 -109.988 -20.268 -108.782 -20.529C-106.915 -20.932 -105.026 -24.07 -103.501 -25.349C-101.754 -26.813 -97.269 -30.622 -96.125 -31.609C-95.986 -31.729 -95.396 -31.998 -95.133 -32.197C-93.847 -33.171 -90.674 -34.572 -90.121 -36.393C-89.935 -37.006 -90.555 -37.125 -90.843 -37.201C-90.843 -37.201 -90.841 -37.2 -90.841 -37.2ZM-56.33 -39.483C-63.671 -45.708 -75.746 -45.083 -83.517 -40.576C-85.567 -39.387 -88 -38.036 -89.06 -35.115C-87.036 -34.953 -84.868 -35.326 -82.861 -35.105C-79.382 -34.722 -76.124 -32.648 -72.565 -32.93C-71.186 -33.039 -69.655 -33.761 -68.307 -33.973C-67.678 -34.072 -65.698 -34.624 -66.095 -32.924C-67.915 -32.665 -69.636 -31.759 -71.27 -31.505C-76.64 -30.672 -81.522 -34.385 -87.076 -33.648C-93.731 -32.765 -102.671 -24.134 -103.141 -23.771C-104.049 -23.07 -105.693 -19.635 -104.828 -18.444C-104.349 -17.784 -101.182 -15.842 -100.426 -15.594C-98.985 -15.121 -97.211 -15.344 -95.817 -15.034C-94.566 -14.756 -93.19 -13.627 -92.096 -13.579C-88.101 -13.406 -85.631 -18.001 -81.868 -19.538C-79.941 -20.325 -78.352 -20.152 -76.583 -20.623C-74.204 -21.255 -71.857 -22.832 -69.322 -23.353C-65.395 -24.16 -61.367 -23.963 -57.548 -22.456C-51.94 -26.682 -50.217 -34.299 -56.33 -39.483ZM-89.002 38.588C-82.989 40.8 -72.676 36.703 -66.374 35C-65.97 34.891 -65.294 34.536 -65.041 35.207C-65.468 35.466 -65.315 35.393 -66.625 35.936C-72.598 37.983 -79.762 41.661 -84.045 41.398C-80.315 42.215 -76.595 43.434 -72.826 43.949C-67.326 44.701 -59.921 45.708 -55.298 40.824C-48.846 34.008 -53.729 22.096 -61.226 22.44C-65.003 22.613 -68.422 24.499 -72.696 24.278C-74.048 24.208 -75.336 23.917 -76.655 23.549C-77.262 23.38 -81.258 21.995 -81.406 21.723C-81.554 21.45 -81.276 20.782 -80.985 20.696C-80.241 20.477 -76.41 21.924 -75.199 22.085C-69.933 22.787 -60.061 21.848 -55.824 17.142C-51.824 12.698 -51.045 5.405 -54.218 -0.133996C-58.612 -7.805 -65.422 -7.108 -72.167 -7.785C-72.92 -8.581 -71.205 -9.242 -70.715 -9.242C-70.715 -9.242 -64.524 -8.921 -64.524 -8.921C-62.649 -8.921 -58.134 -6.569 -56.442 -5.18C-54.624 -3.688 -53.975 -1.223 -52.664 -5.457C-51.07 -10.604 -52.711 -15.774 -55.802 -18.715C-62.326 -24.922 -68.966 -21.283 -75.792 -19.165C-80.655 -17.656 -84.365 -18.619 -87.74 -12.157C-89.255 -9.257 -90.015 -6.497 -88.748 -2.933C-87.222 1.361 -85.306 0.351002 -82.624 1.001C-79.495 1.759 -76.223 3.071 -73.061 2.451C-72.199 2.282 -72.431 2.556 -72.431 3.509C-77.67 5.229 -83.095 1.708 -88.592 2.516C-92.411 3.078 -96.143 5.349 -98.035 10.067C-98.072 10.16 -98.376 10.287 -98.502 10.684C-99.038 12.371 -99.288 14.595 -99.076 16.423C-98.637 20.197 -92.843 22.873 -90.381 22.823C-90.707 23.913 -91.912 23.585 -92.594 23.502C-94.587 23.258 -96.408 22.114 -98.299 21.364C-98.297 29.017 -94.419 36.596 -89.004 38.588C-89.004 38.588 -89.002 38.588 -89.002 38.588ZM-124.565 38.156C-124.565 38.156 -110.887 34.127 -110.887 34.127C-110.28 31.923 -109.202 26.879 -107.4 26.104C-107.265 26.046 -106.969 26.004 -107.011 26.279C-107.553 27.603 -108.473 28.709 -108.601 30.282C-109.051 35.809 -105.596 33.81 -102.922 34.121C-100.467 34.406 -97.869 35.589 -95.395 35.933C-97.323 32.515 -98.606 29.621 -99.354 25.371C-99.995 21.731 -100.173 17.907 -100.97 14.303C-104.69 8.651 -111.938 11.407 -116.342 14.129C-120.131 16.471 -123.231 19.191 -125.486 23.914C-125.969 24.926 -126.547 25.563 -126.884 26.903C-127.826 30.643 -127.683 36.678 -124.565 38.158C-124.565 38.158 -124.565 38.156 -124.565 38.156ZM-140.797 41.399C-141.79 37.412 -142.085 32.975 -140.586 29.121C-140.342 28.494 -137.944 24.335 -138.471 26.938C-138.927 29.192 -140.095 30.674 -140.279 33.552C-140.443 36.108 -139.986 40.452 -137.748 41.019C-134.561 41.826 -130.727 39.931 -127.598 39.213C-128.558 34.648 -129.24 31.137 -127.992 26.467C-127.539 24.772 -125.975 22.261 -125.999 20.836C-126.038 18.56 -127.457 17.271 -128.655 16.261C-133.572 12.118 -139.488 16.715 -143.176 21.54C-144.378 23.113 -145.549 24.701 -146.593 26.374C-146.628 26.43 -146.941 26.99 -147.275 27.532C-152.827 36.525 -147.959 42.036 -140.799 41.399C-140.799 41.399 -140.797 41.399 -140.797 41.399ZM-138.339 14.734C-136.77 13.737 -134.266 13.444 -133.008 12.256C-131.528 10.859 -130.952 7.496 -130.025 5.443C-126.394 -2.604 -115.862 -7.722 -109.24 -6.711C-108.643 -6.62 -108.325 -6.586 -108.329 -5.599C-115.552 -4.965 -122.888 -3.439 -127.862 4.602C-133.227 13.275 -126.445 18.729 -120.292 15.233C-116.888 13.299 -114.465 10.346 -110.454 9.502C-107.061 8.788 -102.475 10.574 -99.605 8.446C-98.374 7.533 -97.333 5.458 -96.008 4.303C-93.817 2.393 -90.993 2.189 -90.444 -2.224C-90.243 -3.838 -90.439 -4.827 -90.644 -6.328C-91.29 -11.075 -93.741 -13.075 -97.143 -13.57C-98.411 -13.754 -99.69 -13.413 -100.953 -13.776C-102.827 -14.314 -104.658 -16.814 -106.622 -17.586C-114.717 -20.771 -125.193 -15.642 -129.181 -5.235C-129.212 -5.155 -129.691 -3.655 -129.773 -3.415C-130.218 -2.127 -130.212 -2.118 -130.222 -1.537C-130.754 -1.389 -130.975 -1.314 -131.459 -1.187C-132.082 -1.024 -132.292 -0.998003 -132.612 -0.862003C-137.272 1.117 -140.167 4.981 -142.906 10.433C-143.306 9.989 -143.392 9.275 -143.114 8.715C-143.114 8.715 -140.531 3.512 -140.531 3.512C-145.793 4.977 -152.442 13.492 -154.899 19.927C-155.991 22.786 -156.114 23.951 -154.364 28.895C-154.364 28.895 -138.336 14.735 -138.336 14.735C-138.336 14.735 -138.339 14.734 -138.339 14.734ZM20.231 -17.623C21.461 -17.746 22.226 -17.434 23.27 -17.258C26.244 -16.758 34.021 -12.331 35.796 -8.03C36.143 -7.37 36.369 -6.984 36.694 -6.571C38.884 -3.791 40.87 -0.688 42.009 3.143C40.881 2.974 40.072 2.065 38.907 1.781C35.47 0.944 35.95 0.621 33.047 -1.425C31.971 -2.183 30.474 -2.488 29.512 -3.468C28.384 -4.617 27.227 -8.098 26.166 -9.779C24.329 -12.688 21.753 -14.697 19.577 -17.081C19.468 -17.906 19.838 -17.584 20.231 -17.623ZM-11.639 -37.2C-10.918 -37.392 -9.417 -37.599 -8.668 -37.661C-0.396 -38.346 14.074 -27.324 14.377 -27.042C15.143 -26.327 20.489 -20.719 19.577 -19.447C16.32 -18.383 13.177 -20.13 9.939 -20.534C8.683 -20.691 7.508 -20.268 6.302 -20.529C4.435 -20.932 2.546 -24.07 1.021 -25.349C-0.726 -26.813 -5.211 -30.622 -6.355 -31.609C-6.494 -31.729 -7.084 -31.998 -7.347 -32.197C-8.633 -33.171 -11.806 -34.572 -12.359 -36.393C-12.545 -37.006 -11.925 -37.125 -11.637 -37.201C-11.637 -37.201 -11.639 -37.2 -11.639 -37.2ZM-46.15 -39.483C-38.809 -45.708 -26.734 -45.083 -18.963 -40.576C-16.913 -39.387 -14.48 -38.036 -13.42 -35.115C-15.444 -34.953 -17.612 -35.326 -19.619 -35.105C-23.098 -34.722 -26.356 -32.648 -29.915 -32.93C-31.294 -33.039 -32.825 -33.761 -34.173 -33.973C-34.802 -34.072 -36.782 -34.624 -36.385 -32.924C-34.565 -32.665 -32.844 -31.759 -31.21 -31.505C-25.84 -30.672 -20.958 -34.385 -15.404 -33.648C-8.749 -32.765 0.191 -24.134 0.661 -23.771C1.569 -23.07 3.213 -19.635 2.348 -18.444C1.869 -17.784 -1.298 -15.842 -2.054 -15.594C-3.495 -15.121 -5.269 -15.344 -6.663 -15.034C-7.914 -14.756 -9.29 -13.627 -10.384 -13.579C-14.379 -13.406 -16.849 -18.001 -20.612 -19.538C-22.539 -20.325 -24.128 -20.152 -25.897 -20.623C-28.276 -21.255 -30.623 -22.832 -33.158 -23.353C-37.085 -24.16 -41.113 -23.963 -44.932 -22.456C-50.54 -26.682 -52.263 -34.299 -46.15 -39.483ZM-13.478 38.588C-19.491 40.8 -29.804 36.703 -36.106 35C-36.51 34.891 -37.186 34.536 -37.439 35.207C-37.012 35.466 -37.165 35.393 -35.855 35.936C-29.882 37.983 -22.718 41.661 -18.435 41.398C-22.165 42.215 -25.885 43.434 -29.654 43.949C-35.154 44.701 -42.559 45.708 -47.182 40.824C-53.634 34.008 -48.751 22.096 -41.254 22.44C-37.477 22.613 -34.058 24.499 -29.784 24.278C-28.432 24.208 -27.144 23.917 -25.825 23.549C-25.218 23.38 -21.222 21.995 -21.074 21.723C-20.926 21.45 -21.204 20.782 -21.495 20.696C-22.239 20.477 -26.07 21.924 -27.281 22.085C-32.547 22.787 -42.419 21.848 -46.656 17.142C-50.656 12.698 -51.435 5.405 -48.262 -0.134C-43.868 -7.805 -37.058 -7.108 -30.313 -7.785C-29.56 -8.581 -31.275 -9.242 -31.765 -9.242C-31.765 -9.242 -37.956 -8.921 -37.956 -8.921C-39.831 -8.921 -44.346 -6.569 -46.038 -5.18C-47.856 -3.688 -48.505 -1.223 -49.816 -5.457C-51.41 -10.604 -49.769 -15.774 -46.678 -18.715C-40.154 -24.922 -33.514 -21.283 -26.688 -19.165C-21.825 -17.656 -18.115 -18.619 -14.74 -12.157C-13.225 -9.257 -12.465 -6.497 -13.732 -2.933C-15.258 1.361 -17.174 0.351 -19.856 1.001C-22.985 1.759 -26.257 3.071 -29.419 2.451C-30.281 2.282 -30.049 2.556 -30.049 3.509C-24.81 5.229 -19.385 1.708 -13.888 2.516C-10.069 3.078 -6.337 5.349 -4.445 10.067C-4.408 10.16 -4.104 10.287 -3.978 10.684C-3.442 12.371 -3.192 14.595 -3.404 16.423C-3.843 20.197 -9.637 22.873 -12.099 22.823C-11.773 23.913 -10.568 23.585 -9.886 23.502C-7.893 23.258 -6.072 22.114 -4.181 21.364C-4.183 29.017 -8.061 36.596 -13.476 38.588C-13.476 38.588 -13.478 38.588 -13.478 38.588ZM22.085 38.156C22.085 38.156 8.407 34.127 8.407 34.127C7.8 31.923 6.722 26.879 4.92 26.104C4.785 26.046 4.489 26.004 4.531 26.279C5.073 27.603 5.993 28.709 6.121 30.282C6.571 35.809 3.116 33.81 0.442 34.121C-2.013 34.406 -4.611 35.589 -7.085 35.933C-5.157 32.515 -3.874 29.621 -3.126 25.371C-2.485 21.731 -2.307 17.907 -1.51 14.303C2.21 8.651 9.458 11.407 13.862 14.129C17.651 16.471 20.751 19.191 23.006 23.914C23.489 24.926 24.067 25.563 24.404 26.903C25.346 30.643 25.203 36.678 22.085 38.158C22.085 38.158 22.085 38.156 22.085 38.156ZM38.317 41.399C39.31 37.412 39.605 32.975 38.106 29.121C37.862 28.494 35.464 24.335 35.991 26.938C36.447 29.192 37.615 30.674 37.799 33.552C37.963 36.108 37.506 40.452 35.268 41.019C32.081 41.826 28.247 39.931 25.118 39.213C26.078 34.648 26.76 31.137 25.512 26.467C25.059 24.772 23.495 22.261 23.519 20.836C23.558 18.56 24.977 17.271 26.175 16.261C31.092 12.118 37.008 16.715 40.696 21.54C41.898 23.113 43.069 24.701 44.113 26.374C44.148 26.43 44.461 26.99 44.795 27.532C50.347 36.525 45.479 42.036 38.319 41.399C38.319 41.399 38.317 41.399 38.317 41.399ZM35.859 14.734C34.29 13.737 31.786 13.444 30.528 12.256C29.048 10.859 28.472 7.496 27.545 5.443C23.914 -2.604 13.382 -7.722 6.76 -6.711C6.163 -6.62 5.845 -6.586 5.849 -5.599C13.072 -4.965 20.408 -3.439 25.382 4.602C30.747 13.275 23.965 18.729 17.812 15.233C14.408 13.299 11.985 10.346 7.974 9.502C4.581 8.788 -0.00499988 10.574 -2.875 8.446C-4.106 7.533 -5.147 5.458 -6.472 4.303C-8.663 2.393 -11.487 2.189 -12.036 -2.224C-12.237 -3.838 -12.041 -4.827 -11.836 -6.328C-11.19 -11.075 -8.739 -13.075 -5.337 -13.57C-4.069 -13.754 -2.79 -13.413 -1.527 -13.776C0.347 -14.314 2.178 -16.814 4.142 -17.586C12.237 -20.771 22.713 -15.642 26.701 -5.235C26.732 -5.155 27.211 -3.655 27.293 -3.415C27.738 -2.127 27.732 -2.118 27.742 -1.537C28.274 -1.389 28.495 -1.314 28.979 -1.187C29.602 -1.024 29.812 -0.998 30.132 -0.862C34.792 1.117 37.687 4.981 40.426 10.433C40.826 9.989 40.912 9.275 40.634 8.715C40.634 8.715 38.051 3.512 38.051 3.512C43.313 4.977 49.962 13.492 52.419 19.927C53.511 22.786 53.634 23.951 51.884 28.895C51.884 28.895 35.856 14.735 35.856 14.735C35.856 14.735 35.859 14.734 35.859 14.734Z"></path>
  <path fill="white" fill-opacity="0.3019608" transform="matrix(0.97712 0 0 0.962837 195.623 62.4712)" d="M8.9405 -7.812C8.9405 -7.812 8.9385 -7.813 8.9385 -7.813C14.2015 -6.348 20.8495 2.167 23.3075 8.602C24.3995 11.461 24.6645 16.419 22.6695 18.791C21.1655 20.579 20.4975 20.407 19.2285 18.969C15.1965 14.4 11.5235 6.448 6.7445 3.41C5.1755 2.413 2.6725 2.12 1.4135 0.932C-0.0675 -0.465 -0.6425 -3.828 -1.5695 -5.881C-5.2005 -13.927 -15.7325 -19.046 -22.3545 -18.035C-22.9525 -17.944 -23.2695 -17.91 -23.2655 -16.923C-23.7655 -16.967 -24.2345 -16.745 -24.5835 -17.475C-24.6645 -18.02 -24.1665 -18.458 -23.8545 -18.648C-20.6775 -20.579 -16.6335 -20.023 -13.3625 -18.751C-10.5875 -17.672 -5.9305 -13.798 -3.5615 -13.663C-2.1045 -13.58 -3.0175 -15.653 -2.3595 -16.698C-2.3295 -16.618 -2.1235 -16.398 -2.0405 -16.159C-1.5955 -14.871 -1.3715 -14.916 -1.2545 -13.36C-0.7225 -13.212 -0.6225 -13.132 -0.1795 -12.898C0.3515 -12.618 0.6985 -12.323 1.0185 -12.187C1.0185 -12.187 0.7545 -11.094 0.7545 -11.094C0.6065 -11.142 0.3975 -11.065 0.2265 -11.094C-1.2125 -11.336 -1.0295 -10.623 -0.6485 -8.609C0.6595 -1.699 5.1525 -0.942 8.7585 2.086C11.3485 4.261 13.6595 7.661 16.0915 10.182C17.0305 11.156 22.1405 16.945 21.8205 12.133C21.7455 10.997 19.7935 4.784 19.2855 3.585C18.9735 2.849 18.6135 2.709 18.4405 2.387C16.8485 -0.573 14.8855 -3.924 12.1065 -4.533C11.9845 -4.375 12.7425 -2.198 12.8975 -1.985C12.3865 -0.912 12.7155 0.188 12.8975 1.292C11.7385 1.633 11.7065 -0.111 11.3145 -0.892C11.3145 -0.892 11.2735 -2.504 11.2735 -2.504L8.9405 -7.812Z"></path>
  <path fill="white" fill-opacity="0.3019608" transform="matrix(0.97712 0 0 0.962837 176.22 57.4817)" d="M-18.831 -8.849C-17.61 -6.476 -14.884 -4.444 -12.903 -3.55C-9.215 -1.886 -5.35 -2.521 -1.6 -1.299C2.751 0.119 10.262 7.204 14.371 3.871C16.077 2.486 15.608 0.652 16.127 -1.539C21.491 7.135 14.71 12.588 8.557 9.092C5.153 7.158 2.73 4.205 -1.281 3.361C-4.674 2.647 -9.26 4.433 -12.13 2.305C-13.361 1.393 -14.402 -0.683 -15.727 -1.838C-17.918 -3.748 -20.743 -3.952 -21.291 -8.365C-21.491 -9.979 -21.295 -10.969 -21.091 -12.469C-19.644 -12.588 -19.493 -10.135 -18.831 -8.849Z"></path>
  <path fill="white" fill-opacity="0.3019608" transform="matrix(0.97712 0 0 0.962837 143.213 26.1087)" d="M-20.406 3.988C-26.016 -0.239 -27.739 -7.856 -21.625 -13.038C-21.81 -11.352 -22.734 -10.704 -22.921 -8.817C-23.265 -5.353 -22.591 -3.708 -20.482 -2.047C-16.92 0.758 -14.692 -0.304 -10.969 0.125C-7.673 0.505 -4.806 2.884 -1.933 3.319C0.184 3.639 2.696 3.231 4.841 3.806C6.822 4.337 8.822 6.752 10.848 7.538C14.007 8.763 19.798 8.786 22.641 6.348C23.796 5.358 24.294 4.136 24.039 2.264C24.263 2.41 24.716 2.31 25.187 2.673C26.095 3.375 27.739 6.809 26.874 8C26.394 8.66 23.228 10.602 22.472 10.85C21.031 11.323 19.257 11.1 17.863 11.41C16.612 11.688 15.236 12.817 14.142 12.865C10.147 13.038 7.677 8.443 3.914 6.906C1.988 6.119 0.399 6.291 -1.371 5.821C-3.75 5.189 -6.097 3.612 -8.632 3.091C-12.559 2.284 -16.587 2.48 -20.406 3.988Z"></path>
  <path fill="white" fill-opacity="0.3019608" transform="matrix(0.97712 0 0 0.962837 176.1 81.3553)" d="M13.874 -7.024C13.874 -7.024 13.876 -7.025 13.876 -7.025C14.359 -6.013 14.937 -5.376 15.274 -4.036C16.215 -0.296 16.073 5.74 12.955 7.219C12.955 7.219 -0.723 3.19 -0.723 3.19C-1.33 0.986 -2.408 -4.057 -4.21 -4.833C-4.345 -4.891 -4.641 -4.932 -4.599 -4.658C-4.058 -3.334 -3.137 -2.227 -3.009 -0.655C-2.559 4.872 -6.014 2.873 -8.688 3.184C-11.143 3.469 -13.741 4.652 -16.215 4.996C-14.287 1.578 -13.004 -1.316 -12.256 -5.566C-11.939 -5.466 -10.987 -5.814 -10.932 -5.357C-10.556 -2.202 -12.791 0.627999 -8.716 -0.135C-6.39 -0.57 -5.075 -3.152 -5.921 -6.293C-1.549 -7.219 1.273 -1.94 4.826 0.183C7.337 1.684 12.522 3.512 13.671 -1.292C14.223 -3.601 13.298 -5.019 13.874 -7.024Z"></path>
  <path fill="white" fill-opacity="0.3019608" transform="matrix(0.97712 0 0 0.962837 203.251 79.6347)" d="M6.9395 -2.322C6.9395 -2.322 6.9385 -2.321 6.9385 -2.321C6.9735 -2.265 7.5385 -2.157 7.8725 -1.616C13.4255 7.377 8.5565 12.887 1.3965 12.251C2.3895 8.264 2.6845 3.827 1.1855 -0.027C0.9415 -0.654 -1.4565 -4.813 -0.9295 -2.21C-0.4735 0.0440001 0.6945 1.526 0.8785 4.404C1.0425 6.96 0.5855 11.304 -1.6525 11.871C-4.8395 12.678 -8.6735 10.783 -11.8025 10.065C-10.8425 5.5 -10.1595 1.988 -11.4085 -2.681C-11.8625 -4.376 -13.4255 -6.887 -13.4015 -8.312C-13.3625 -10.589 -11.9435 -11.878 -10.7455 -12.887C-10.5445 -11.608 -11.1525 -10.52 -11.2515 -9.397C-11.6315 -5.09 -9.7605 -3.39 -8.8855 0.395C-8.1675 3.501 -8.7395 6.54 -5.5765 7.118C-1.8645 7.797 -0.5305 4.386 -1.0025 -0.285C-1.1865 -2.114 -2.2145 -3.416 -2.2975 -5.234C0.2685 -4.094 1.7885 -0.841 2.9425 2.285C3.2145 3.022 4.2755 7.102 4.4605 7.174C6.9735 8.15 7.9825 4.74 7.7065 1.899C7.5415 0.205 6.3635 -0.867 6.9395 -2.322Z"></path>
  <path fill="white" fill-opacity="0.3019608" transform="matrix(0.97712 0 0 0.962837 139.412 73.5077)" d="M18.5275 0.7165C18.5275 0.7165 18.5245 0.7145 18.5245 0.7145C20.5185 0.4705 22.3385 -0.6735 24.2295 -1.4235C24.2275 6.2295 20.3495 13.8085 14.9345 15.8005C8.9215 18.0125 -1.3915 13.9155 -7.6935 12.2125C-8.0385 12.1195 -8.5375 11.9025 -8.8465 12.2425C-8.8465 12.2425 9.9765 18.6105 9.9765 18.6105C6.2465 19.4275 2.5265 20.6465 -1.2425 21.1615C-6.7425 21.9135 -14.1475 22.9205 -18.7705 18.0365C-25.2225 11.2205 -20.3395 -0.6915 -12.8425 -0.3475C-9.5075 -0.1945 -6.4505 1.2875 -2.8395 1.4825C-2.6405 1.5175 -2.5825 1.4975 -2.2905 1.4705C-0.8235 1.5575 7.3215 -0.7515 7.3375 -1.0635C7.3525 -1.3745 7.2395 -1.9465 6.9485 -2.0325C6.2045 -2.2515 2.2875 -0.5295 1.0775 -0.3685C-4.1885 0.333499 -14.0065 -0.9385 -18.2435 -5.6445C-22.2445 -10.0885 -22.9555 -17.3425 -19.8495 -22.9205C-18.8185 -21.5445 -19.4585 -18.4865 -19.3185 -16.5485C-19.0595 -12.9595 -17.0205 -10.1475 -14.8005 -8.5755C-7.8815 -3.6765 0.4185 -7.8385 7.8395 -3.1825C8.4595 -2.7925 10.3955 -1.3225 10.1165 -0.3215C6.5355 2.7895 0.8665 3.4835 -1.1535 3.6355C-1.3235 3.6155 -1.5295 3.6505 -1.7035 3.6695C-1.8165 3.6745 -1.8945 3.6775 -1.8975 3.6775C-1.8975 3.6775 -1.9005 3.6775 -1.9005 3.6775C-2.5545 3.6055 -3.2265 3.4685 -3.9105 3.2965C-4.2525 3.2105 -4.5975 3.1165 -4.9445 3.0165C-5.2915 2.9165 -5.6405 2.8115 -5.9905 2.7055C-6.3405 2.5995 -6.6915 2.4925 -7.0435 2.3875C-7.3945 2.2825 -7.7465 2.1795 -8.0975 2.0835C-8.4485 1.9875 -8.7995 1.8975 -9.1485 1.8175C-9.4975 1.7375 -9.8455 1.6675 -10.1905 1.6105C-10.3625 1.5825 -10.5345 1.5575 -10.7065 1.5365C-11.2215 1.4735 -11.7295 1.4455 -12.2285 1.4655C-12.5605 1.4785 -12.8895 1.5125 -13.2135 1.5715C-13.5375 1.6305 -13.8565 1.7145 -14.1695 1.8275C-14.3255 1.8835 -14.4805 1.9475 -14.6345 2.0185C-14.9415 2.1605 -15.2425 2.3335 -15.5365 2.5405C-16.2715 3.0575 -16.9625 3.7895 -17.5955 4.7925C-17.6745 4.9185 -17.7325 5.0555 -17.7755 5.1935C-17.8185 5.3325 -17.8485 5.4725 -17.8715 5.6045C-17.9185 5.8695 -17.9405 6.1025 -18.0005 6.2285C-18.0425 6.3155 -18.6655 6.1705 -18.9255 7.6745C-20.3815 16.1075 -9.0255 16.9595 -5.1965 16.4335C-4.8365 16.3835 -4.2605 16.2625 -4.0115 15.8855C-4.7955 15.0435 -5.6015 14.8005 -6.5935 14.3665C-7.0075 14.1845 -9.7765 13.3015 -10.3555 12.1855C-10.6855 11.7095 -10.6135 11.1515 -10.3435 10.9665C-9.7565 10.5935 -0.8765 12.6585 0.6115 12.7825C6.1855 13.2465 14.7875 12.2485 18.6835 6.0365C19.0395 5.4685 20.5705 2.4835 20.2675 1.8685C20.0715 1.4705 16.1915 1.1955 15.3925 0.7595C13.2245 -0.4235 18.1325 -2.0695 18.9645 -2.6835C21.9165 -4.8605 23.3775 -8.2485 23.9685 -12.7185C24.0065 -12.6245 24.3095 -12.4975 24.4355 -12.1015C24.9725 -10.4145 25.2225 -8.1905 25.0095 -6.3625C24.5705 -2.5885 18.7765 0.0875 16.3145 0.0375C16.6405 1.1275 17.8465 0.7995 18.5275 0.7165Z"></path>
  <path fill="white" fill-opacity="0.3019608" transform="matrix(0.97712 0 0 0.962837 128.144 41.9704)" d="M-6.1825 4.582C-8.0015 6.074 -8.5595 8.746 -9.8705 4.512C-11.4645 -0.635 -9.8235 -5.805 -6.7325 -8.746C-6.8465 -6.809 -7.6965 -5.481 -7.7985 -3.478C-8.1925 4.287 -4.3565 -0.182 -1.2485 -0.996C1.4295 -1.697 3.7745 -1.592 6.4245 -0.856C7.0045 -0.695 10.8105 0.834 10.9525 1.096C11.4645 2.042 9.9595 2.151 9.6335 2.184C10.3865 1.388 8.6715 0.727 8.1815 0.727C8.1815 0.727 1.8465 0.727 1.8465 0.727C-0.0285 0.727 -4.4895 3.193 -6.1825 4.582Z"></path>
  <path fill="white" fill-opacity="0.3019608" transform="matrix(0.97712 0 0 0.962837 145.538 47.4057)" d="M-7.273 6.775C-8.135 6.606 -7.903 6.881 -7.903 7.833C-8.763 7.551 -9.681 7.227 -8.356 6.297C-4.602 3.662 1.099 3.147 4.743 -0.032C5.393 -0.725 6.485 -2.436 6.731 -3.481C7.109 -5.086 6.379 -6.978 7.406 -7.833C8.921 -4.933 9.681 -2.173 8.414 1.391C6.888 5.685 4.972 4.675 2.29 5.325C-0.839 6.083 -4.111 7.395 -7.273 6.775Z"></path>
  <path fill="white" fill-opacity="0.3019608" transform="matrix(0.97712 0 0 0.962837 197.211 44.4618)" d="M-11.161 -9.6985C-11.161 -9.6985 -11.162 -9.6995 -11.162 -9.6995C-11.272 -10.5245 -10.901 -10.2025 -10.508 -10.2415C-9.278 -10.3645 -8.514 -10.0525 -7.469 -9.8765C-7.564 -6.6035 -4.625 -4.1845 -2.975 -2.0525C-2.527 -1.4745 -2.277 -0.634496 -1.806 -0.0224962C0.0270001 2.3605 4.211 5.4515 6.786 5.0595C7.516 4.0195 4.775 0.993504 4.525 0.292504C4.368 -0.148496 4.683 -0.369496 4.674 -0.403496C5.191 -0.411496 5.408 0.0875039 5.734 0.500504C7.924 3.2795 10.133 6.6935 11.272 10.5245C10.145 10.3565 9.335 9.4475 8.17 9.1635C4.733 8.3265 5.213 8.0035 2.31 5.9575C1.234 5.1995 -0.263 4.8945 -1.225 3.9145C-2.353 2.7655 -3.51 -0.715496 -4.572 -2.3965C-6.409 -5.3055 -8.985 -7.3155 -11.161 -9.6985Z"></path>
  <path fill="white" fill-opacity="0.3019608" transform="matrix(0.97712 0 0 0.962837 141.327 16.3493)" d="M-9.203 1.56C-9.203 1.56 -9.202 1.56 -9.202 1.56C-6.173 0.723 -3.547 1.835 -0.562 1.462C0.611 1.316 5.818 -0.22 6.766 -0.811C7.792 -1.451 7.471 -2.694 7.493 -3.997C9.543 -2.808 11.976 -1.458 13.036 1.464C11.011 1.626 8.843 1.252 6.837 1.473C3.357 1.856 0.0989997 3.93 -3.459 3.648C-4.838 3.539 -6.369 2.817 -7.717 2.605C-8.346 2.506 -10.326 1.954 -9.929 3.654C-10.214 3.613 -13.036 3.997 -12.304 2.931C-12.192 2.768 -9.605 1.671 -9.203 1.56Z"></path>
  <path fill="white" fill-opacity="0.3019608" transform="matrix(0.97712 0 0 0.962837 171.056 24.5874)" d="M-10.149 -2.943C-10.149 -2.943 -10.15 -2.944 -10.15 -2.944C-11.436 -3.918 -15.779 -6.549 -16.332 -8.37C-16.518 -8.983 -15.898 -9.102 -15.61 -9.178C-14.889 -9.37 -13.389 -9.596 -12.639 -9.639C-12.698 -8.448 -12.687 -7.469 -12.115 -6.522C-11.886 -6.144 -10.191 -5.134 -9.188 -4.236C-8.32 -3.658 -7.31 -2.335 -6.745 -1.926C-3.16 0.669 0.724 3.648 4.727 4.464C5.795 4.681 10.956 5.889 10.814 3.722C10.742 2.622 9.343 1.954 9.534 0.562C9.686 0.697 10.103 0.697 10.406 0.98C11.172 1.694 16.518 7.303 15.606 8.575C12.349 9.639 9.206 7.892 5.968 7.488C4.712 7.331 3.234 7.721 2.028 7.461C0.161 7.059 -1.335 3.838 -2.95 2.674C-4.114 1.836 -5.751 1.54 -6.921 0.504C-7.778 -0.254 -8.738 -1.753 -9.649 -2.87C-9.801 -2.888 -9.963 -2.91 -10.149 -2.943Z"></path>
  <path fill="white" fill-opacity="0.3019608" transform="matrix(-0.97712 -1.45384e-07 -1.47541e-07 0.962837 38.7555 62.4711)" d="M8.94049 -7.812C8.94049 -7.812 8.93849 -7.813 8.93849 -7.813C14.2015 -6.348 20.8495 2.167 23.3075 8.602C24.3995 11.461 24.6645 16.419 22.6695 18.791C21.1655 20.579 20.4975 20.407 19.2285 18.969C15.1965 14.4 11.5235 6.448 6.74449 3.41C5.17549 2.413 2.67249 2.12 1.41349 0.931996C-0.0675076 -0.465004 -0.642507 -3.828 -1.56951 -5.881C-5.20051 -13.927 -15.7325 -19.046 -22.3545 -18.035C-22.9525 -17.944 -23.2695 -17.91 -23.2655 -16.923C-23.7655 -16.967 -24.2345 -16.745 -24.5835 -17.475C-24.6645 -18.02 -24.1665 -18.458 -23.8545 -18.648C-20.6775 -20.579 -16.6335 -20.023 -13.3625 -18.751C-10.5875 -17.672 -5.93051 -13.798 -3.56151 -13.663C-2.10451 -13.58 -3.01751 -15.653 -2.35951 -16.698C-2.32951 -16.618 -2.12351 -16.398 -2.04051 -16.159C-1.59551 -14.871 -1.37151 -14.916 -1.25451 -13.36C-0.722508 -13.212 -0.622508 -13.132 -0.179508 -12.898C0.351492 -12.618 0.698492 -12.323 1.01849 -12.187C1.01849 -12.187 0.754492 -11.094 0.754492 -11.094C0.606492 -11.142 0.397492 -11.065 0.226492 -11.094C-1.21251 -11.336 -1.02951 -10.623 -0.648508 -8.609C0.659493 -1.699 5.15249 -0.942004 8.75849 2.086C11.3485 4.261 13.6595 7.661 16.0915 10.182C17.0305 11.156 22.1405 16.945 21.8205 12.133C21.7455 10.997 19.7935 4.784 19.2855 3.585C18.9735 2.849 18.6135 2.709 18.4405 2.387C16.8485 -0.573004 13.6043 -5.47333 10.8253 -6.08233C9.99224 -6.80929 10.4699 -3.99817 12.0939 -2.86742C11.5829 -1.79442 11.8024 -2.04598 11.9844 -0.941977C10.8254 -0.600977 11.7065 -0.111004 11.3145 -0.892004C11.3145 -0.892004 11.2735 -2.504 11.2735 -2.504L8.94049 -7.812Z"></path>
  <path fill="white" fill-opacity="0.3019608" transform="matrix(-0.97712 -1.45384e-07 -1.47541e-07 0.962837 58.1587 57.4817)" d="M-18.831 -8.849C-17.61 -6.476 -14.884 -4.444 -12.903 -3.55C-9.215 -1.886 -5.35 -2.521 -1.6 -1.299C2.751 0.119 10.262 7.204 14.371 3.871C16.077 2.486 15.608 0.652 16.127 -1.539C21.491 7.135 14.71 12.588 8.557 9.092C5.153 7.158 2.73 4.205 -1.281 3.361C-4.674 2.647 -9.26 4.433 -12.13 2.305C-13.361 1.393 -14.402 -0.683 -15.727 -1.838C-17.918 -3.748 -20.743 -3.952 -21.291 -8.365C-21.491 -9.979 -21.295 -10.969 -21.091 -12.469C-19.644 -12.588 -19.493 -10.135 -18.831 -8.849Z"></path>
  <path fill="white" fill-opacity="0.3019608" transform="matrix(-0.97712 -1.45384e-07 -1.47541e-07 0.962837 91.1658 26.1087)" d="M-20.406 3.98801C-26.016 -0.238993 -27.739 -7.85599 -21.625 -13.038C-21.81 -11.352 -22.734 -10.704 -22.921 -8.81699C-23.265 -5.35299 -22.591 -3.70799 -20.482 -2.04699C-16.92 0.758008 -14.692 -0.303992 -10.969 0.125008C-7.673 0.505008 -4.806 2.88401 -1.933 3.31901C0.183998 3.63901 2.696 3.23101 4.841 3.80601C6.822 4.33701 8.822 6.75201 10.848 7.53801C14.007 8.76301 19.798 8.78601 22.641 6.34801C23.796 5.35801 24.294 4.13601 24.039 2.26401C24.263 2.41001 24.716 2.31001 25.187 2.67301C26.095 3.37501 27.739 6.80901 26.874 8.00001C26.394 8.66001 23.228 10.602 22.472 10.85C21.031 11.323 19.257 11.1 17.863 11.41C16.612 11.688 15.236 12.817 14.142 12.865C10.147 13.038 7.677 8.44301 3.914 6.90601C1.988 6.11901 0.398998 6.29101 -1.371 5.82101C-3.75 5.18901 -6.097 3.61201 -8.632 3.09101C-12.559 2.28401 -16.587 2.48001 -20.406 3.98801Z"></path>
  <path fill="white" fill-opacity="0.3019608" transform="matrix(-0.97712 -1.45384e-07 -1.47541e-07 0.962837 58.2788 81.3553)" d="M13.874 -7.024C13.874 -7.024 13.876 -7.025 13.876 -7.025C14.359 -6.013 14.937 -5.376 15.274 -4.036C16.215 -0.295998 16.073 5.74 12.955 7.219C12.955 7.219 -0.723004 3.19 -0.723004 3.19C-1.33 0.986002 -2.408 -4.057 -4.21 -4.833C-4.345 -4.891 -4.641 -4.932 -4.599 -4.658C-4.058 -3.334 -3.137 -2.227 -3.009 -0.654998C-2.559 4.872 -6.014 2.873 -8.688 3.184C-11.143 3.469 -13.741 4.652 -16.215 4.996C-14.287 1.578 -13.004 -1.316 -12.256 -5.566C-11.939 -5.466 -10.987 -5.814 -10.932 -5.357C-10.556 -2.202 -12.791 0.628001 -8.716 -0.134998C-6.39 -0.569998 -5.075 -3.152 -5.921 -6.293C-1.549 -7.219 1.273 -1.94 4.826 0.183002C7.337 1.684 12.522 3.512 13.671 -1.292C14.223 -3.601 13.298 -5.019 13.874 -7.024Z"></path>
  <path fill="white" fill-opacity="0.3019608" transform="matrix(-0.97712 -1.45384e-07 -1.47541e-07 0.962837 31.1281 79.6347)" d="M6.93951 -2.322C6.93951 -2.322 6.93851 -2.321 6.93851 -2.321C6.97351 -2.265 7.53851 -2.157 7.87251 -1.616C13.4255 7.377 8.55651 12.887 1.39651 12.251C2.38951 8.264 2.68451 3.827 1.18551 -0.0269981C0.941508 -0.653998 -1.45649 -4.813 -0.929492 -2.21C-0.473492 0.0440021 0.694508 1.526 0.878508 4.404C1.04251 6.96 0.585508 11.304 -1.65249 11.871C-4.83949 12.678 -8.67349 10.783 -11.8025 10.065C-10.8425 5.5 -10.1595 1.988 -11.4085 -2.681C-11.8625 -4.376 -13.4255 -6.887 -13.4015 -8.312C-13.3625 -10.589 -11.9435 -11.878 -10.7455 -12.887C-10.5445 -11.608 -11.1525 -10.52 -11.2515 -9.397C-11.6315 -5.09 -9.76049 -3.39 -8.88549 0.395002C-8.16749 3.501 -8.73949 6.54 -5.57649 7.118C-1.86449 7.797 -0.530493 4.386 -1.00249 -0.284998C-1.18649 -2.114 -0.86198 -1.38998 -0.94498 -3.20798C1.62102 -2.06798 1.78851 -0.840998 2.94251 2.285C3.21451 3.022 4.27551 7.102 4.46051 7.174C6.97351 8.15 7.98251 4.74 7.70651 1.899C7.54151 0.205002 6.36351 -0.866998 6.93951 -2.322Z"></path>
  <path fill="white" fill-opacity="0.3019608" transform="matrix(-0.97712 -1.45384e-07 -1.47541e-07 0.962837 94.9672 73.5077)" d="M18.5275 0.7165C18.5275 0.7165 18.5245 0.7145 18.5245 0.7145C20.5185 0.4705 22.3385 -0.6735 24.2295 -1.4235C24.2275 6.2295 20.3495 13.8085 14.9345 15.8005C8.9215 18.0125 -1.3915 13.9155 -7.6935 12.2125C-8.0385 12.1195 -8.5375 11.9025 -8.8465 12.2425C-8.8465 12.2425 9.9765 18.6105 9.9765 18.6105C6.2465 19.4275 2.5265 20.6465 -1.2425 21.1615C-6.7425 21.9135 -14.1475 22.9205 -18.7705 18.0365C-25.2225 11.2205 -20.3395 -0.6915 -12.8425 -0.3475C-9.5075 -0.1945 -6.4505 1.2875 -2.8395 1.4825C-2.6405 1.5175 -2.5825 1.4975 -2.2905 1.4705C-0.823498 1.5575 7.3215 -0.7515 7.3375 -1.0635C7.3525 -1.3745 7.2395 -1.9465 6.9485 -2.0325C6.2045 -2.2515 2.2875 -0.5295 1.0775 -0.3685C-4.1885 0.333499 -14.0065 -0.9385 -18.2435 -5.6445C-22.2445 -10.0885 -22.9555 -17.3425 -19.8495 -22.9205C-18.8185 -21.5445 -19.4585 -18.4865 -19.3185 -16.5485C-19.0595 -12.9595 -17.0205 -10.1475 -14.8005 -8.5755C-7.8815 -3.6765 0.418502 -7.8385 7.8395 -3.1825C8.4595 -2.7925 10.3955 -1.3225 10.1165 -0.3215C6.5355 2.7895 0.866502 3.4835 -1.1535 3.6355C-1.3235 3.6155 -1.5295 3.6505 -1.7035 3.6695C-1.8165 3.6745 -1.8945 3.6775 -1.8975 3.6775C-1.8975 3.6775 -1.9005 3.6775 -1.9005 3.6775C-2.5545 3.6055 -3.2265 3.4685 -3.9105 3.2965C-4.2525 3.2105 -4.5975 3.1165 -4.9445 3.0165C-5.2915 2.9165 -5.6405 2.8115 -5.9905 2.7055C-6.3405 2.5995 -6.6915 2.4925 -7.0435 2.3875C-7.3945 2.2825 -7.7465 2.1795 -8.0975 2.0835C-8.4485 1.9875 -8.7995 1.8975 -9.1485 1.8175C-9.4975 1.7375 -9.8455 1.6675 -10.1905 1.6105C-10.3625 1.5825 -10.5345 1.5575 -10.7065 1.5365C-11.2215 1.4735 -11.7295 1.4455 -12.2285 1.4655C-12.5605 1.4785 -12.8895 1.5125 -13.2135 1.5715C-13.5375 1.6305 -13.8565 1.7145 -14.1695 1.8275C-14.3255 1.8835 -14.4805 1.9475 -14.6345 2.0185C-14.9415 2.1605 -15.2425 2.3335 -15.5365 2.5405C-16.2715 3.0575 -16.9625 3.7895 -17.5955 4.7925C-17.6745 4.9185 -17.7325 5.0555 -17.7755 5.1935C-17.8185 5.3325 -17.8485 5.4725 -17.8715 5.6045C-17.9185 5.8695 -17.9405 6.1025 -18.0005 6.2285C-18.0425 6.3155 -18.6655 6.1705 -18.9255 7.6745C-20.3815 16.1075 -9.0255 16.9595 -5.1965 16.4335C-4.8365 16.3835 -4.2605 16.2625 -4.0115 15.8855C-4.7955 15.0435 -5.6015 14.8005 -6.5935 14.3665C-7.0075 14.1845 -9.7765 13.3015 -10.3555 12.1855C-10.6855 11.7095 -10.6135 11.1515 -10.3435 10.9665C-9.7565 10.5935 -0.876498 12.6585 0.611502 12.7825C6.1855 13.2465 14.7875 12.2485 18.6835 6.0365C19.0395 5.4685 20.5705 2.4835 20.2675 1.8685C20.0715 1.4705 16.1915 1.1955 15.3925 0.7595C13.2245 -0.4235 18.1325 -2.0695 18.9645 -2.6835C21.9165 -4.8605 23.3775 -8.2485 23.9685 -12.7185C24.0065 -12.6245 24.3095 -12.4975 24.4355 -12.1015C24.9725 -10.4145 25.2225 -8.1905 25.0095 -6.3625C24.5705 -2.5885 18.7765 0.0875 16.3145 0.0375C16.6405 1.1275 17.8465 0.7995 18.5275 0.7165Z"></path>
  <path fill="white" fill-opacity="0.3019608" transform="matrix(-0.97712 -1.45384e-07 -1.47541e-07 0.962837 106.234 41.9704)" d="M-6.1825 4.582C-8.0015 6.074 -8.5595 8.746 -9.8705 4.512C-11.4645 -0.635 -9.8235 -5.805 -6.7325 -8.746C-6.8465 -6.809 -7.6965 -5.481 -7.7985 -3.478C-8.1925 4.287 -4.3565 -0.182 -1.2485 -0.996C1.4295 -1.697 3.7745 -1.592 6.4245 -0.856C7.0045 -0.695 10.8105 0.834 10.9525 1.096C11.4645 2.042 9.9595 2.151 9.6335 2.184C10.3865 1.388 8.6715 0.727 8.1815 0.727C8.1815 0.727 1.8465 0.727 1.8465 0.727C-0.0285 0.727 -4.4895 3.193 -6.1825 4.582Z"></path>
  <path fill="white" fill-opacity="0.3019608" transform="matrix(-0.97712 -1.45384e-07 -1.47541e-07 0.962837 88.8412 47.4056)" d="M-7.273 6.775C-8.135 6.606 -7.903 6.881 -7.903 7.833C-8.763 7.551 -9.681 7.227 -8.356 6.297C-4.602 3.662 1.099 3.147 4.743 -0.032C5.393 -0.725 6.485 -2.436 6.731 -3.481C7.109 -5.086 6.379 -6.978 7.406 -7.833C8.921 -4.933 9.681 -2.173 8.414 1.391C6.888 5.685 4.972 4.675 2.29 5.325C-0.839 6.083 -4.111 7.395 -7.273 6.775Z"></path>
  <path fill="white" fill-opacity="0.3019608" transform="matrix(-0.97712 -1.45384e-07 -1.47541e-07 0.962837 37.1682 44.4618)" d="M-11.161 -9.6985C-11.161 -9.6985 -11.162 -9.6995 -11.162 -9.6995C-11.272 -10.5245 -10.901 -10.2025 -10.508 -10.2415C-9.278 -10.3645 -8.514 -10.0525 -7.469 -9.8765C-7.564 -6.6035 -4.625 -4.1845 -2.975 -2.0525C-2.527 -1.4745 -2.277 -0.634504 -1.806 -0.0225038C0.0270001 2.3605 4.211 5.4515 6.786 5.0595C7.516 4.0195 4.775 0.993496 4.525 0.292496C4.368 -0.148504 4.683 -0.369504 4.674 -0.403504C5.191 -0.411504 5.408 0.0874962 5.734 0.500496C7.924 3.2795 10.133 6.6935 11.272 10.5245C10.145 10.3565 9.335 9.4475 8.17 9.1635C4.733 8.3265 5.213 8.0035 2.31 5.9575C1.234 5.1995 -0.263 4.8945 -1.225 3.9145C-2.353 2.7655 -3.51 -0.715504 -4.572 -2.3965C-6.409 -5.3055 -8.985 -7.3155 -11.161 -9.6985Z"></path>
  <path fill="white" fill-opacity="0.3019608" transform="matrix(-0.97712 -1.45384e-07 -1.47541e-07 0.962837 93.0516 16.3493)" d="M-9.203 1.56C-9.203 1.56 -9.202 1.56 -9.202 1.56C-6.173 0.723 -3.547 1.835 -0.562002 1.462C0.610998 1.316 5.818 -0.22 6.766 -0.811C7.792 -1.451 7.471 -2.694 7.493 -3.997C9.543 -2.808 11.976 -1.458 13.036 1.464C11.011 1.626 8.843 1.252 6.837 1.473C3.357 1.856 0.0989978 3.93 -3.459 3.648C-4.838 3.539 -6.369 2.817 -7.717 2.605C-8.346 2.506 -10.326 1.954 -9.929 3.654C-10.214 3.613 -13.036 3.997 -12.304 2.931C-12.192 2.768 -9.605 1.671 -9.203 1.56Z"></path>
  <path fill="white" fill-opacity="0.3019608" transform="matrix(-0.97712 -1.45384e-07 -1.47541e-07 0.962837 63.3227 24.5874)" d="M-10.149 -2.943C-10.149 -2.943 -10.15 -2.944 -10.15 -2.944C-11.436 -3.918 -15.779 -6.549 -16.332 -8.37C-16.518 -8.983 -15.898 -9.102 -15.61 -9.178C-14.889 -9.37 -13.389 -9.596 -12.639 -9.639C-12.698 -8.448 -12.687 -7.469 -12.115 -6.522C-11.886 -6.144 -10.191 -5.134 -9.188 -4.236C-8.32 -3.658 -7.31 -2.335 -6.745 -1.926C-3.16 0.669 0.723996 3.648 4.727 4.464C5.795 4.681 10.956 5.889 10.814 3.722C10.742 2.622 9.343 1.954 9.534 0.562C9.686 0.697 10.103 0.697 10.406 0.98C11.172 1.694 16.518 7.303 15.606 8.575C12.349 9.639 9.206 7.892 5.968 7.488C4.712 7.331 3.234 7.721 2.028 7.461C0.160996 7.059 -1.335 3.838 -2.95 2.674C-4.114 1.836 -5.751 1.54 -6.921 0.504C-7.778 -0.254 -8.738 -1.753 -9.649 -2.87C-9.801 -2.888 -9.963 -2.91 -10.149 -2.943Z"></path>
  <path fill="white" fill-opacity="0.7019608" transform="matrix(0.97712 0 0 0.962837 135.542 35.7163)" d="M8.193 -0.693508C8.193 -0.693508 8.193 -0.691508 8.193 -0.691508C10.448 -0.0775076 14.545 1.29649 14.731 5.03549C11.639 4.13749 8.7 2.16049 5.606 1.05649C0.765 -0.671507 -5.703 -1.88651 -10.549 0.198492C-11.536 0.622492 -12.829 1.96249 -13.643 2.12649C-14.731 2.34549 -13.327 -0.524508 -12.993 -0.989508C-10.085 -5.03551 -2.742 -4.36351 0.96 -3.09751C3.616 -2.18951 5.418 -1.44951 8.193 -0.693508Z"></path>
  <path fill="white" fill-opacity="0.7019608" transform="matrix(0.97712 0 0 0.962837 150.682 57.9377)" d="M-8.2825 -0.2025C-8.2825 -0.2025 -8.2835 -0.2015 -8.2835 -0.2015C-8.7135 -0.3135 -8.7395 0.0385 -8.6795 -0.9165C-5.9285 -0.4185 -3.5995 -2.4485 -0.8895 -2.7345C2.4535 -3.0875 7.7735 -2.1465 8.7395 3.0875C6.2255 2.3775 3.7645 0.9125 1.1845 0.5855C-2.0455 0.1755 -4.9265 0.6655 -8.2825 -0.2025Z"></path>
  <path fill="white" fill-opacity="0.7019608" transform="matrix(0.97712 0 0 0.962837 128.418 50.1295)" d="M-2.8885 -2.602C-2.8885 -2.602 -2.8875 -2.601 -2.8875 -2.601C0.139499 -4.809 3.6505 -5.003 6.9775 -4.466C7.1695 -3.568 6.2045 -3.375 5.7265 -3.1C2.4115 -1.196 -1.4805 -1.085 -4.4585 2.153C-4.4585 2.153 -6.7465 5.003 -6.7465 5.003C-7.1695 1.542 -4.8925 -1.141 -2.8885 -2.602Z"></path>
  <path fill="white" fill-opacity="0.7019608" transform="matrix(0.97712 0 0 0.962837 130.217 77.4505)" d="M7.5145 -0.4185C7.5145 -0.4185 7.5155 -0.4165 7.5155 -0.4165C7.5685 -0.4115 7.6365 -0.4165 7.7095 -0.4245C7.8365 -0.4305 8.0125 -0.4395 8.2595 -0.4585C8.4475 -0.4355 8.5885 -0.3425 8.5665 -0.0575C7.3875 0.2105 5.9285 0.6125 4.7525 0.6905C1.4275 0.9095 -2.0055 -0.3205 -5.2175 0.7745C-6.2435 1.1235 -7.5555 2.6505 -8.5885 2.1325C-8.5275 2.0065 -8.5055 1.7735 -8.4595 1.5085C-8.4365 1.3765 -8.4065 1.2355 -8.3635 1.0975C-8.3205 0.9595 -8.2625 0.8225 -8.1835 0.6965C-7.5505 -0.3075 -6.8595 -1.0385 -6.1245 -1.5555C-5.8305 -1.7625 -5.5295 -1.9355 -5.2225 -2.0775C-5.0695 -2.1485 -4.9145 -2.2125 -4.7575 -2.2685C-4.4445 -2.3815 -4.1255 -2.4655 -3.8015 -2.5245C-3.4785 -2.5835 -3.1495 -2.6175 -2.8165 -2.6305C-2.3175 -2.6505 -1.8085 -2.6225 -1.2945 -2.5595C-1.1235 -2.5385 -0.951501 -2.5135 -0.778501 -2.4855C-0.433501 -2.4285 -0.0855009 -2.3585 0.263499 -2.2785C0.612499 -2.1985 0.963499 -2.1085 1.3145 -2.0125C1.6655 -1.9155 2.0165 -1.8135 2.3685 -1.7085C2.7205 -1.6035 3.0715 -1.4965 3.4215 -1.3905C3.7715 -1.2845 4.1205 -1.1795 4.4675 -1.0795C4.8145 -0.9805 5.1595 -0.8855 5.5015 -0.7995C6.1855 -0.6275 6.8575 -0.4905 7.5115 -0.4185C7.5115 -0.4185 7.5145 -0.4185 7.5145 -0.4185Z"></path>
  <path fill="white" fill-opacity="0.7019608" transform="matrix(0.97712 0 0 0.962837 133.047 75.9586)" d="M-0.5265 -0.159C-0.1745 -0.054 0.1765 0.053 0.5265 0.159C0.1765 0.053 -0.1745 -0.054 -0.5265 -0.159Z"></path>
  <path fill="white" fill-opacity="0.7019608" transform="matrix(0.97712 0 0 0.962837 126.035 75.1431)" d="M-0.478 0.128C-0.165 0.015 0.154 -0.069 0.478 -0.128C0.154 -0.069 -0.165 0.015 -0.478 0.128Z"></path>
  <path fill="white" fill-opacity="0.7019608" transform="matrix(0.97712 0 0 0.962837 136.576 76.8641)" d="M1.0065 0.1905C1.0065 0.1905 1.0035 0.1905 1.0035 0.1905C0.3495 0.1185 -0.3225 -0.0185 -1.0065 -0.1905C-0.3225 -0.0185 0.3495 0.1185 1.0035 0.1905C1.0045 0.1905 1.0065 0.1905 1.0065 0.1905Z"></path>
  <path fill="white" fill-opacity="0.7019608" transform="matrix(0.97712 0 0 0.962837 134.072 76.2624)" d="M-0.523002 -0.155502C-0.173002 -0.0495019 0.175998 0.0554981 0.522998 0.155498C0.175998 0.0554981 -0.173002 -0.0495019 -0.523002 -0.155502Z"></path>
  <path fill="white" fill-opacity="0.7019608" transform="matrix(0.97712 0 0 0.962837 135.088 76.5459)" d="M-0.517002 -0.140002C-0.170002 -0.0400019 0.174998 0.0539981 0.516998 0.139998C0.174998 0.0539981 -0.170002 -0.0410019 -0.517002 -0.140002Z"></path>
  <path fill="white" fill-opacity="0.7019608" transform="matrix(0.97712 0 0 0.962837 138.018 77.0144)" d="M-0.275 0.0275C-0.102 0.0075 0.105 -0.0275 0.275 -0.0065C0.028 0.0125 -0.148 0.0215 -0.275 0.0275Z"></path>
  <path fill="white" fill-opacity="0.7019608" transform="matrix(0.97712 0 0 0.962837 179.211 38.9544)" d="M-0.337 -1.1415C-2.775 -1.5205 -4.874 -0.8285 -7.129 -0.8525C-7.355 -0.8555 -9.729 -1.1675 -9.106 -1.9665C-6.411 -3.7265 -4.086 -4.4785 -1.06 -4.1515C2.511 -3.7665 7.633 -0.9615 9.475 3.3715C9.529 3.4985 9.729 4.4785 8.967 4.0205C5.959 1.9515 3.038 -0.6165 -0.337 -1.1415Z"></path>
  <path fill="white" fill-opacity="0.7019608" transform="matrix(0.97712 0 0 0.962837 162.996 42.2044)" d="M-4.255 2.676C-4.255 2.676 -4.254 2.676 -4.254 2.676C-4.714 2.796 -4.66 2.636 -4.663 2.116C-4.676 -0.0970001 -3.287 -1.442 -1.897 -2.088C-1.575 -2.237 0.031 -2.796 0.229 -2.796C0.229 -2.796 4.584 -2.796 4.584 -2.796C4.714 -1.933 4.499 -2.21 4.243 -1.979C2.568 -0.471 0.341 -0.259 -1.481 0.673C-2.294 1.089 -3.672 2.523 -4.255 2.676Z"></path>
  <path fill="white" fill-opacity="0.7019608" transform="matrix(0.97712 0 0 0.962837 181.143 51.4761)" d="M-8.18 -4.0415C-8.18 -4.0415 8.18 4.1565 8.18 4.1565C4.06 -2.6545 -2.027 -4.1565 -8.18 -4.0415Z"></path>
  <path fill="white" fill-opacity="0.7019608" transform="matrix(0.97712 0 0 0.962837 132.949 14.8541)" d="M-7.423 0.658C-7.423 0.658 -7.424 0.658 -7.424 0.658C-8.384 1.23 -11.876 5.205 -10.297 1.064C-8.486 -3.685 0.548998 -5.205 4.052 -4.991C5.086 -4.928 11.442 -3.597 11.822 -2.777C11.876 -2.662 11.869 -1.755 11.843 -1.717C11.62 -1.393 6.223 -1.688 5.364 -1.7C0.904998 -1.765 -3.149 -1.89 -7.423 0.658Z"></path>
  <path fill="white" fill-opacity="0.7019608" transform="matrix(0.97712 0 0 0.962837 151.615 23.936)" d="M-3.1645 -3.4915C-3.1645 -3.4915 -3.1635 -3.4915 -3.1635 -3.4915C2.6005 -4.1505 7.9025 -1.8965 11.7455 4.1505C8.4585 3.3395 5.6035 0.7045 2.3025 -0.1185C-1.8755 -1.1605 -6.1505 -0.1045 -10.2915 -0.5865C-10.6125 -0.6235 -11.7035 -0.7225 -11.7455 -1.3075C-8.7925 -1.1025 -6.0835 -3.1575 -3.1645 -3.4915Z"></path>
  <path fill="white" fill-opacity="0.7019608" transform="matrix(0.97712 0 0 0.962837 176.501 68.2121)" d="M-5.914 -4.2715C-0.137 -5.3555 6.284 -0.8455 9.763 5.3555C5.601 2.3195 -3.049 -3.7715 -7.478 0.1275C-7.879 0.4805 -9.468 3.0635 -9.763 2.6175C-9.631 -0.9345 -8.693 -3.7495 -5.914 -4.2715Z"></path>
  <path fill="white" fill-opacity="0.7019608" transform="matrix(0.97712 0 0 0.962837 200.105 70.2283)" d="M2.15549 1.5525C2.15549 1.5525 2.15549 1.5535 2.15549 1.5535C0.203492 0.4475 -2.04351 -0.2825 -4.16451 0.2485C-5.18951 0.5045 -5.48251 1.6425 -6.46951 1.6175C-6.83951 -4.8955 -0.868508 -3.4285 1.94649 -1.4375C3.31649 -0.4685 5.20749 1.9685 6.19949 3.6215C6.44549 4.0315 6.83949 4.2105 6.72549 4.8955C6.72549 4.8955 2.15549 1.5525 2.15549 1.5525Z"></path>
  <path fill="white" fill-opacity="0.7019608" transform="matrix(0.97712 0 0 0.962837 199.182 54.5754)" d="M-3.41351 -2.8925C-3.41351 -2.8925 -3.41451 -2.8925 -3.41451 -2.8925C-3.24351 -2.8635 -3.03451 -2.9405 -2.88651 -2.8925C-1.45451 -2.4265 2.28449 0.1755 2.97549 1.9505C3.09249 2.2505 3.41449 2.7415 3.05049 2.9405C0.953492 1.2635 -2.79851 0.8915 -3.41351 -2.8925Z"></path>
  <path fill="white" fill-opacity="0.7019608" transform="matrix(0.97712 0 0 0.962837 210.489 61.8603)" d="M-3.106 -3.8985C-3.106 -3.8985 -3.105 -3.8985 -3.105 -3.8985C-0.326 -3.2895 1.637 0.0605001 3.229 3.0215C2.992 3.8985 2.52 2.9165 2.303 2.6585C1.015 1.1265 -1.627 -0.4015 -2.315 -1.3505C-2.47 -1.5635 -3.229 -3.7405 -3.106 -3.8985Z"></path>
  <path fill="white" fill-opacity="0.7019608" transform="matrix(0.97712 0 0 0.962837 169.496 20.7909)" d="M-0.7495 -0.047C-0.7495 -0.047 -0.7505 -0.048 -0.7505 -0.048C-2.4775 -0.724 -8.2165 -1.724 -9.0675 -2.777C-9.3355 -3.109 -9.5455 -3.31 -9.4585 -3.873C-4.2865 -4.866 0.5715 -2.267 5.0635 1.036C6.5365 2.12 8.1955 3.512 9.5455 4.866C6.0575 3.591 2.7125 1.308 -0.7495 -0.047Z"></path>
  <path fill="white" fill-opacity="0.7019608" transform="matrix(0.97712 0 0 0.962837 195.343 39.9701)" d="M-2.2935 -0.5605C-2.2935 -0.5605 -2.2935 -0.5615 -2.2935 -0.5615C-3.1665 -1.2035 -4.3415 -2.2265 -4.7635 -3.3875C-2.0635 -3.8945 0.3955 -1.9165 2.3665 0.4305C2.6645 0.7855 4.7635 3.4975 4.4735 3.8945C4.4735 3.8945 -2.2935 -0.5605 -2.2935 -0.5605Z"></path>
  <path fill="white" fill-opacity="0.7019608" transform="matrix(-0.97712 -1.45384e-07 -1.47541e-07 0.962837 98.8371 35.7163)" d="M8.193 -0.693508C8.193 -0.693508 8.193 -0.691508 8.193 -0.691508C10.448 -0.0775076 14.545 1.29649 14.731 5.03549C11.639 4.13749 8.7 2.16049 5.606 1.05649C0.765 -0.671507 -5.703 -1.88651 -10.549 0.198492C-11.536 0.622492 -12.829 1.96249 -13.643 2.12649C-14.731 2.34549 -13.327 -0.524508 -12.993 -0.989508C-10.085 -5.03551 -2.742 -4.36351 0.96 -3.09751C3.616 -2.18951 5.418 -1.44951 8.193 -0.693508Z"></path>
  <path fill="white" fill-opacity="0.7019608" transform="matrix(-0.97712 -1.45384e-07 -1.47541e-07 0.962837 83.6971 57.9376)" d="M-8.2825 -0.2025C-8.2825 -0.2025 -8.2835 -0.2015 -8.2835 -0.2015C-8.7135 -0.3135 -8.7395 0.0385 -8.6795 -0.9165C-5.9285 -0.4185 -3.5995 -2.4485 -0.8895 -2.7345C2.4535 -3.0875 7.7735 -2.1465 8.7395 3.0875C6.2255 2.3775 3.7645 0.9125 1.1845 0.5855C-2.0455 0.1755 -4.9265 0.6655 -8.2825 -0.2025Z"></path>
  <path fill="white" fill-opacity="0.7019608" transform="matrix(-0.97712 -1.45384e-07 -1.47541e-07 0.962837 105.961 50.1295)" d="M-2.8885 -2.602C-2.8885 -2.602 -2.8875 -2.601 -2.8875 -2.601C0.139501 -4.809 3.6505 -5.003 6.9775 -4.466C7.1695 -3.568 6.2045 -3.375 5.7265 -3.1C2.4115 -1.196 -1.4805 -1.085 -4.4585 2.153C-4.4585 2.153 -6.7465 5.003 -6.7465 5.003C-7.1695 1.542 -4.8925 -1.141 -2.8885 -2.602Z"></path>
  <path fill="white" fill-opacity="0.7019608" transform="matrix(-0.97712 -1.45384e-07 -1.47541e-07 0.962837 104.162 77.4505)" d="M7.5145 -0.4185C7.5145 -0.4185 7.5155 -0.4165 7.5155 -0.4165C7.5685 -0.4115 7.6365 -0.4165 7.7095 -0.4245C7.8365 -0.4305 8.0125 -0.4395 8.2595 -0.4585C8.4475 -0.4355 8.5885 -0.3425 8.5665 -0.0575C7.3875 0.2105 5.9285 0.6125 4.7525 0.6905C1.4275 0.9095 -2.0055 -0.3205 -5.2175 0.7745C-6.2435 1.1235 -7.5555 2.6505 -8.5885 2.1325C-8.5275 2.0065 -8.5055 1.7735 -8.4595 1.5085C-8.4365 1.3765 -8.4065 1.2355 -8.3635 1.0975C-8.3205 0.9595 -8.2625 0.8225 -8.1835 0.6965C-7.5505 -0.3075 -6.8595 -1.0385 -6.1245 -1.5555C-5.8305 -1.7625 -5.5295 -1.9355 -5.2225 -2.0775C-5.0695 -2.1485 -4.9145 -2.2125 -4.7575 -2.2685C-4.4445 -2.3815 -4.1255 -2.4655 -3.8015 -2.5245C-3.4785 -2.5835 -3.1495 -2.6175 -2.8165 -2.6305C-2.3175 -2.6505 -1.8085 -2.6225 -1.2945 -2.5595C-1.1235 -2.5385 -0.9515 -2.5135 -0.7785 -2.4855C-0.4335 -2.4285 -0.0855 -2.3585 0.2635 -2.2785C0.6125 -2.1985 0.9635 -2.1085 1.3145 -2.0125C1.6655 -1.9155 2.0165 -1.8135 2.3685 -1.7085C2.7205 -1.6035 3.0715 -1.4965 3.4215 -1.3905C3.7715 -1.2845 4.1205 -1.1795 4.4675 -1.0795C4.8145 -0.9805 5.1595 -0.8855 5.5015 -0.7995C6.1855 -0.6275 6.8575 -0.4905 7.5115 -0.4185C7.5115 -0.4185 7.5145 -0.4185 7.5145 -0.4185Z"></path>
  <path fill="white" fill-opacity="0.7019608" transform="matrix(-0.97712 -1.45384e-07 -1.47541e-07 0.962837 55.1677 38.9543)" d="M-0.337 -1.1415C-2.775 -1.5205 -4.874 -0.8285 -7.129 -0.8525C-7.355 -0.8555 -9.729 -1.1675 -9.106 -1.9665C-6.411 -3.7265 -4.086 -4.4785 -1.06 -4.1515C2.511 -3.7665 7.633 -0.9615 9.475 3.3715C9.529 3.4985 9.729 4.4785 8.967 4.0205C5.959 1.9515 3.038 -0.6165 -0.337 -1.1415Z"></path>
  <path fill="white" fill-opacity="0.7019608" transform="matrix(-0.97712 -1.45384e-07 -1.47541e-07 0.962837 71.383 42.2044)" d="M-4.255 2.676C-4.255 2.676 -4.254 2.676 -4.254 2.676C-4.714 2.796 -4.66 2.636 -4.663 2.116C-4.676 -0.0970001 -3.287 -1.442 -1.897 -2.088C-1.575 -2.237 0.0310038 -2.796 0.229004 -2.796C0.229004 -2.796 4.584 -2.796 4.584 -2.796C4.714 -1.933 4.499 -2.21 4.243 -1.979C2.568 -0.471 0.341004 -0.259 -1.481 0.673C-2.294 1.089 -3.672 2.523 -4.255 2.676Z"></path>
  <path fill="white" fill-opacity="0.7019608" transform="matrix(-0.97712 -1.45384e-07 -1.47541e-07 0.962837 53.2359 51.476)" d="M-8.18 -4.0415C-8.18 -4.0415 8.18 4.1565 8.18 4.1565C4.06 -2.6545 -2.027 -4.1565 -8.18 -4.0415Z"></path>
  <path fill="white" fill-opacity="0.7019608" transform="matrix(-0.97712 -1.45384e-07 -1.47541e-07 0.962837 101.429 14.854)" d="M-7.423 0.658C-7.423 0.658 -7.424 0.658 -7.424 0.658C-8.384 1.23 -11.876 5.205 -10.297 1.064C-8.486 -3.685 0.549 -5.205 4.052 -4.991C5.086 -4.928 11.442 -3.597 11.822 -2.777C11.876 -2.662 11.869 -1.755 11.843 -1.717C11.62 -1.393 6.223 -1.688 5.364 -1.7C0.905 -1.765 -3.149 -1.89 -7.423 0.658Z"></path>
  <path fill="white" fill-opacity="0.7019608" transform="matrix(-0.97712 -1.45384e-07 -1.47541e-07 0.962837 82.764 23.936)" d="M-3.1645 -3.4915C-3.1645 -3.4915 -3.1635 -3.4915 -3.1635 -3.4915C2.6005 -4.1505 7.9025 -1.8965 11.7455 4.1505C8.4585 3.3395 5.6035 0.7045 2.3025 -0.1185C-1.8755 -1.1605 -6.1505 -0.1045 -10.2915 -0.5865C-10.6125 -0.6235 -11.7035 -0.7225 -11.7455 -1.3075C-8.7925 -1.1025 -6.0835 -3.1575 -3.1645 -3.4915Z"></path>
  <path fill="white" fill-opacity="0.7019608" transform="matrix(-0.97712 -1.45384e-07 -1.47541e-07 0.962837 57.8782 68.2121)" d="M-5.914 -4.2715C-0.137004 -5.3555 6.284 -0.8455 9.763 5.3555C5.601 2.3195 -3.049 -3.7715 -7.478 0.1275C-7.879 0.4805 -9.468 3.0635 -9.763 2.6175C-9.631 -0.9345 -8.693 -3.7495 -5.914 -4.2715Z"></path>
  <path fill="white" fill-opacity="0.7019608" transform="matrix(-0.97712 -1.45384e-07 -1.47541e-07 0.962837 34.2735 70.2283)" d="M2.1555 1.5525C2.1555 1.5525 2.1555 1.5535 2.1555 1.5535C0.2035 0.447496 -2.0435 -0.282504 -4.1645 0.248496C-5.1895 0.504496 -5.4825 1.6425 -6.4695 1.6175C-6.8395 -4.8955 -0.8685 -3.4285 1.9465 -1.4375C3.3165 -0.468504 5.2075 1.9685 6.1995 3.6215C6.4455 4.0315 6.8395 4.2105 6.7255 4.8955C6.7255 4.8955 2.1555 1.5525 2.1555 1.5525Z"></path>
  <path fill="white" fill-opacity="0.7019608" transform="matrix(-0.97712 -1.45384e-07 -1.47541e-07 0.962837 35.1968 54.5754)" d="M-3.41351 -2.8925C-3.41351 -2.8925 -3.41451 -2.8925 -3.41451 -2.8925C-3.24351 -2.8635 -3.03451 -2.9405 -2.88651 -2.8925C-1.45451 -2.4265 2.28449 0.1755 2.97549 1.9505C3.09249 2.2505 3.41449 2.7415 3.05049 2.9405C0.953492 1.2635 -2.79851 0.8915 -3.41351 -2.8925Z"></path>
  <path fill="white" fill-opacity="0.7019608" transform="matrix(-0.97712 -1.45384e-07 -1.47541e-07 0.962837 23.8901 61.8602)" d="M-3.106 -3.8985C-3.106 -3.8985 -3.105 -3.8985 -3.105 -3.8985C-0.326 -3.2895 1.637 0.060504 3.229 3.0215C2.992 3.8985 2.52 2.9165 2.303 2.6585C1.015 1.1265 -1.627 -0.401496 -2.315 -1.3505C-2.47 -1.5635 -3.229 -3.7405 -3.106 -3.8985Z"></path>
  <path fill="white" fill-opacity="0.7019608" transform="matrix(-0.97712 -1.45384e-07 -1.47541e-07 0.962837 64.8827 20.7909)" d="M-0.749504 -0.047C-0.749504 -0.047 -0.750504 -0.048 -0.750504 -0.048C-2.4775 -0.724 -8.2165 -1.724 -9.0675 -2.777C-9.3355 -3.109 -9.5455 -3.31 -9.4585 -3.873C-4.2865 -4.866 0.571496 -2.267 5.0635 1.036C6.5365 2.12 8.1955 3.512 9.5455 4.866C6.0575 3.591 2.7125 1.308 -0.749504 -0.047Z"></path>
  <path fill="white" fill-opacity="0.7019608" transform="matrix(-0.97712 -1.45384e-07 -1.47541e-07 0.962837 39.0359 39.9701)" d="M-2.29351 -0.560492C-2.29351 -0.560492 -2.29351 -0.561492 -2.29351 -0.561492C-3.16651 -1.20349 -4.34151 -2.22649 -4.76351 -3.38749C-2.06351 -3.89449 0.395492 -1.91649 2.36649 0.430508C2.66449 0.785508 4.76349 3.49751 4.47349 3.89451C4.47349 3.89451 -2.29351 -0.560492 -2.29351 -0.560492Z"></path>
</svg></svg><style>@media (prefers-color-scheme: light) { :root { filter: none; } }
@media (prefers-color-scheme: dark) { :root { filter: none; } }
</style></svg>