<svg xmlns="http://www.w3.org/2000/svg" viewBox="0 0 96 96" width="96" height="96">
  <defs>
    <linearGradient id="glow" x1="0%" y1="0%" x2="100%" y2="100%">
      <stop offset="0%" style="stop-color:#00e5ff;stop-opacity:1" />
      <stop offset="100%" style="stop-color:#7c3aed;stop-opacity:1" />
    </linearGradient>
  </defs>
  <circle cx="48" cy="48" r="44" fill="url(#glow)" opacity="0.15"/>
  <circle cx="48" cy="48" r="36" fill="url(#glow)" opacity="0.3"/>
  <path d="M48 16c-17.7 0-32 14.3-32 32s14.3 32 32 32 32-14.3 32-32-14.3-32-32-32zm0 8c13.3 0 24 10.7 24 24s-10.7 24-24 24-24-10.7-24-24 10.7-24 24-24z" fill="url(#glow)"/>
  <path d="M38 42c-2.2 0-4 2.7-4 6s1.8 6 4 6 4-2.7 4-6-1.8-6-4-6zm20 0c-2.2 0-4 2.7-4 6s1.8 6 4 6 4-2.7 4-6-1.8-6-4-6z" fill="#00e5ff"/>
  <path d="M48 58c-5.5 0-10 2.2-10 5h20c0-2.8-4.5-5-10-5z" fill="#00e5ff"/>
</svg>
