<?xml version="1.0" encoding="UTF-8"?>
<svg id="Layer_2" data-name="Layer 2" xmlns="http://www.w3.org/2000/svg" width="339.888" height="239.329" xmlns:xlink="http://www.w3.org/1999/xlink" viewBox="0 0 339.888 239.329">
  <defs>
    <clipPath id="clippath">
      <path d="M240.814,63.188c1.199-.118,1.945.182,2.963.351,2.9.48,10.482,4.734,12.213,8.866.338.634.558,1.005.875,1.402,2.136,2.671,4.072,5.652,5.182,9.333-1.099-.162-1.888-1.036-3.024-1.309-3.351-.804-2.883-1.114-5.713-3.08-1.05-.728-2.509-1.021-3.447-1.963-1.1-1.104-2.228-4.448-3.262-6.063-1.791-2.795-4.303-4.725-6.425-7.015-.106-.793.255-.483.638-.521ZM209.741,44.379c.703-.184,2.167-.383,2.897-.443,8.065-.658,22.173,9.931,22.469,10.202.746.687,5.959,6.075,5.069,7.297-3.175,1.022-6.239-.656-9.396-1.044-1.225-.151-2.371.255-3.546.005-1.821-.387-3.663-3.402-5.149-4.631-1.704-1.406-6.077-5.066-7.192-6.014-.135-.115-.711-.374-.967-.565-1.254-.936-4.348-2.282-4.887-4.031-.181-.589.423-.703.704-.776h-.002ZM176.093,42.186c7.158-5.981,18.931-5.38,26.507-1.05,1.999,1.142,4.371,2.44,5.405,5.247-1.974.156-4.087-.203-6.044.01-3.392.368-6.569,2.361-10.039,2.09-1.344-.105-2.837-.798-4.151-1.002-.613-.095-2.544-.625-2.157,1.008,1.775.249,3.453,1.119,5.046,1.363,5.235.8,9.995-2.767,15.41-2.059,6.489.848,15.205,9.14,15.664,9.489.885.673,2.488,3.974,1.644,5.118-.467.634-3.554,2.5-4.291,2.738-1.405.454-3.135.24-4.494.538-1.22.267-2.561,1.352-3.628,1.398-3.895.166-6.303-4.248-9.972-5.725-1.879-.756-3.428-.59-5.153-1.042-2.32-.607-4.608-2.122-7.08-2.623-3.828-.775-7.756-.586-11.479.862-5.468-4.06-7.148-11.378-1.188-16.358ZM207.948,117.192c-5.862,2.125-15.917-1.811-22.062-3.448-.394-.104-1.053-.445-1.299.199.416.249.267.179,1.544.701,5.824,1.966,12.808,5.5,16.984,5.247-3.636.785-7.263,1.956-10.938,2.451-5.363.723-12.582,1.69-17.09-3.002-6.29-6.549-1.529-17.993,5.78-17.662,3.683.166,7.016,1.978,11.183,1.765,1.318-.067,2.574-.346,3.86-.7.592-.162,4.488-1.493,4.632-1.754.145-.263-.126-.904-.41-.987-.726-.21-4.461,1.18-5.641,1.335-5.135.674-14.76-.228-18.891-4.749-3.9-4.27-4.659-11.277-1.566-16.598,4.284-7.37,10.924-6.7,17.5-7.351.735-.765-.938-1.4-1.415-1.4l-6.036.308c-1.829,0-6.231,2.26-7.88,3.594-1.773,1.433-2.406,3.802-3.684-.266-1.554-4.945.046-9.912,3.06-12.737,6.36-5.963,12.834-2.467,19.49-.432,4.741,1.45,8.358.525,11.649,6.733,1.477,2.786,2.218,5.438.983,8.862-1.488,4.125-3.356,3.155-5.971,3.779-3.051.728-6.241,1.989-9.324,1.393-.84-.162-.614.101-.614,1.016,5.108,1.652,10.397-1.73,15.757-.954,3.723.54,7.362,2.722,9.206,7.254.036.09.333.212.456.593.522,1.621.766,3.758.559,5.514-.428,3.626-6.077,6.197-8.477,6.149.318,1.047,1.492.732,2.157.652,1.944-.235,3.719-1.334,5.563-2.054-.002,7.352-3.783,14.634-9.063,16.548h-.002ZM242.622,116.776l-13.336-3.87c-.592-2.118-1.643-6.964-3.4-7.708-.132-.056-.42-.096-.379.168.528,1.272,1.425,2.334,1.55,3.846.439,5.31-2.93,3.389-5.537,3.688-2.394.274-4.927,1.41-7.339,1.741,1.88-3.284,3.131-6.064,3.86-10.148.625-3.497.799-7.17,1.576-10.633,3.627-5.43,10.694-2.782,14.987-.167,3.695,2.25,6.717,4.863,8.916,9.401.471.972,1.034,1.584,1.363,2.871.918,3.593.779,9.392-2.261,10.813v-.002ZM258.448,119.892c.968-3.83,1.256-8.093-.206-11.796-.238-.602-2.576-4.598-2.062-2.097.445,2.165,1.583,3.589,1.763,6.354.16,2.456-.286,6.629-2.468,7.174-3.107.775-6.845-1.045-9.896-1.735.936-4.386,1.601-7.759.384-12.246-.442-1.628-1.967-4.04-1.943-5.409.038-2.187,1.421-3.425,2.589-4.396,4.794-3.98,10.562.436,14.158,5.072,1.172,1.511,2.314,3.037,3.332,4.644.034.054.339.592.665,1.113,5.413,8.64.667,13.934-6.314,13.322h-.002ZM256.051,94.274c-1.53-.958-3.971-1.239-5.197-2.381-1.443-1.342-2.005-4.573-2.909-6.545-3.54-7.731-13.809-12.648-20.265-11.677-.582.087-.892.12-.888,1.068,7.042.609,14.195,2.075,19.044,9.8,5.231,8.332-1.381,13.572-7.38,10.214-3.319-1.859-5.682-4.696-9.592-5.506-3.308-.686-7.78,1.029-10.578-1.015-1.2-.877-2.215-2.871-3.507-3.98-2.136-1.835-4.89-2.031-5.425-6.271-.196-1.551-.005-2.501.195-3.943.63-4.561,3.02-6.482,6.337-6.958,1.236-.177,2.483.151,3.714-.198,1.827-.517,3.613-2.919,5.528-3.66,7.892-3.06,18.106,1.868,21.994,11.866.031.077.498,1.518.577,1.748.434,1.237.429,1.246.438,1.804.519.142.734.214,1.206.336.608.157.812.182,1.124.312,4.544,1.901,7.366,5.614,10.037,10.852.39-.427.474-1.113.203-1.651l-2.519-4.998c5.131,1.407,11.613,9.588,14.009,15.77,1.065,2.747,1.185,3.866-.522,8.616l-15.627-13.604h.003ZM101.447,63.188c-1.199-.118-1.945.182-2.963.351-2.899.48-10.482,4.734-12.212,8.866-.339.634-.559,1.005-.876,1.402-2.135,2.671-4.071,5.652-5.182,9.333,1.1-.162,1.889-1.036,3.025-1.309,3.351-.804,2.883-1.114,5.713-3.08,1.049-.728,2.509-1.021,3.447-1.963,1.099-1.104,2.227-4.448,3.262-6.063,1.791-2.795,4.303-4.725,6.424-7.015.106-.793-.254-.483-.638-.521ZM132.52,44.379c-.703-.184-2.166-.383-2.896-.443-8.065-.658-22.174,9.931-22.469,10.202-.747.687-5.959,6.075-5.07,7.297,3.176,1.022,6.24-.656,9.397-1.044,1.225-.151,2.37.255,3.546.005,1.82-.387,3.662-3.402,5.149-4.631,1.703-1.406,6.076-5.066,7.191-6.014.136-.115.711-.374.968-.565,1.253-.936,4.347-2.282,4.886-4.031.182-.589-.423-.703-.704-.776h.002ZM166.168,42.186c-7.157-5.981-18.93-5.38-26.507-1.05-1.999,1.142-4.371,2.44-5.404,5.247,1.973.156,4.087-.203,6.044.01,3.392.368,6.568,2.361,10.038,2.09,1.345-.105,2.837-.798,4.152-1.002.613-.095,2.543-.625,2.156,1.008-1.774.249-3.452,1.119-5.045,1.363-5.236.8-9.996-2.767-15.411-2.059-6.488.848-15.205,9.14-15.663,9.489-.885.673-2.488,3.974-1.645,5.118.467.634,3.555,2.5,4.292,2.738,1.405.454,3.135.24,4.494.538,1.219.267,2.561,1.352,3.628,1.398,3.895.166,6.303-4.248,9.972-5.725,1.879-.756,3.428-.59,5.153-1.042,2.319-.607,4.607-2.122,7.079-2.623,3.829-.775,7.756-.586,11.48.862,5.467-4.06,7.147-11.378,1.187-16.358ZM134.313,117.192c5.863,2.125,15.918-1.811,22.062-3.448.394-.104,1.053-.445,1.3.199-.416.249-.267.179-1.544.701-5.824,1.966-12.809,5.5-16.985,5.247,3.637.785,7.264,1.956,10.939,2.451,5.362.723,12.582,1.69,17.089-3.002,6.291-6.549,1.53-17.993-5.779-17.662-3.683.166-7.016,1.978-11.184,1.765-1.318-.067-2.574-.346-3.86-.7-.591-.162-4.487-1.493-4.632-1.754-.144-.263.127-.904.411-.987.725-.21,4.46,1.18,5.641,1.334,5.134.675,14.759-.227,18.89-4.748,3.9-4.27,4.66-11.277,1.566-16.598-4.284-7.37-10.923-6.7-17.5-7.351-.734-.765.938-1.4,1.416-1.4l6.036.308c1.828,0,6.23,2.26,7.88,3.594,1.772,1.433,2.405,3.802,3.683-.266,1.555-4.945-.045-9.912-3.059-12.737-6.361-5.963-12.835-2.467-19.49-.432-4.741,1.45-8.359.525-11.649,6.733-1.477,2.786-2.218,5.438-.983,8.862,1.488,4.125,3.356,3.155,5.971,3.779,3.051.728,6.241,1.989,9.324,1.393.84-.162.614.101.614,1.016-5.108,1.652-10.397-1.73-15.757-.954-3.723.54-7.362,2.722-9.207,7.254-.036.09-.332.212-.455.593-.523,1.621-.766,3.758-.56,5.514.428,3.626,6.077,6.197,8.478,6.149-.318,1.047-1.493.732-2.158.652-1.943-.235-3.718-1.334-5.562-2.054.002,7.352,3.783,14.634,9.062,16.548h.002ZM99.64,116.776l13.336-3.87c.592-2.118,1.643-6.964,3.399-7.708.132-.056.421-.096.38.168-.529,1.272-1.426,2.334-1.55,3.846-.439,5.31,2.929,3.389,5.536,3.688,2.394.274,4.927,1.41,7.339,1.741-1.88-3.284-3.13-6.064-3.86-10.148-.625-3.497-.798-7.17-1.575-10.633-3.627-5.43-10.694-2.782-14.988-.167-3.694,2.25-6.717,4.863-8.915,9.401-.471.972-1.035,1.584-1.363,2.871-.919,3.593-.779,9.392,2.261,10.813v-.002ZM83.814,119.892c-.968-3.83-1.256-8.093.206-11.796.237-.602,2.575-4.598,2.062-2.097-.445,2.165-1.584,3.589-1.763,6.354-.16,2.456.286,6.629,2.468,7.174,3.107.775,6.845-1.045,9.896-1.735-.936-4.386-1.601-7.759-.384-12.246.441-1.628,1.966-4.04,1.943-5.409-.038-2.187-1.422-3.426-2.59-4.396-4.794-3.98-10.562.436-14.158,5.072-1.172,1.511-2.313,3.037-3.331,4.644-.034.054-.339.592-.665,1.113-5.413,8.64-.667,13.934,6.314,13.322h.002ZM86.21,94.274c1.53-.958,3.971-1.239,5.198-2.381,1.443-1.342,2.005-4.573,2.908-6.545,3.541-7.731,13.809-12.648,20.265-11.677.583.087.893.12.889,1.068-7.043.609-14.195,2.075-19.045,9.8-5.231,8.332,1.382,13.572,7.381,10.214,3.319-1.859,5.681-4.696,9.592-5.506,3.308-.686,7.779,1.029,10.578-1.015,1.2-.877,2.215-2.871,3.507-3.98,2.136-1.835,4.889-2.031,5.424-6.271.196-1.551.005-2.501-.195-3.943-.629-4.561-3.019-6.482-6.336-6.958-1.236-.177-2.483.151-3.715-.198-1.827-.517-3.612-2.919-5.527-3.66-7.892-3.06-18.106,1.868-21.995,11.866-.03.077-.497,1.518-.577,1.748-.434,1.237-.428,1.246-.438,1.804-.518.142-.734.214-1.206.336-.607.157-.812.182-1.124.312-4.543,1.901-7.366,5.614-10.036,10.852-.39-.427-.474-1.113-.203-1.651l2.518-4.998c-5.13,1.407-11.613,9.588-14.008,15.77-1.065,2.747-1.185,3.866.522,8.616l15.627-13.604h-.003Z" fill="none"/>
    </clipPath>
    <linearGradient id="linear-gradient" x1="-220.138" y1="888.469" x2="212.937" y2="888.469" gradientTransform="translate(-1349.807 61.637) rotate(90) scale(1.572 -1.619)" gradientUnits="userSpaceOnUse">
      <stop offset="0" stop-color="#00d4ff"/>
      <stop offset=".07" stop-color="#3d51ff"/>
      <stop offset=".14" stop-color="#de3aff"/>
      <stop offset=".21" stop-color="#fd2032"/>
      <stop offset=".291" stop-color="#ff9f0e"/>
      <stop offset=".338" stop-color="#ff9e00"/>
      <stop offset=".4" stop-color="#3aff68"/>
      <stop offset=".49" stop-color="#00d4ff"/>
      <stop offset=".56" stop-color="#3d51ff"/>
      <stop offset=".64" stop-color="#de3aff"/>
      <stop offset=".71" stop-color="#fd2032"/>
      <stop offset=".78" stop-color="#ffdc0e"/>
      <stop offset=".85" stop-color="#ff9e1b"/>
      <stop offset=".92" stop-color="#3aff68"/>
      <stop offset="1" stop-color="#00d4ff"/>
    </linearGradient>
  </defs>
  <g id="Layer_5" data-name="Layer 5">
    <g>
      <path d="M223.2,229.828c-4.297-5.821-8.181-12.106-11.55-18.691,6.385-2.413,12.604-5.404,18.49-8.895.108-.063.177-.178.183-.304.006-.125-.051-.246-.152-.32-1.532-1.129-3.077-2.331-4.591-3.573-.068-.056-.153-.085-.238-.085-.054,0-.108.012-.158.035-17.764,8.272-36.393,12.467-55.37,12.467s-37.717-4.195-55.696-12.468c-.05-.022-.104-.034-.157-.034-.086,0-.171.029-.239.087-1.491,1.237-3.034,2.438-4.587,3.57-.102.074-.16.194-.154.32s.075.241.184.305c5.902,3.492,12.109,6.478,18.455,8.876-3.307,6.479-7.191,12.764-11.551,18.691-19.987-6.156-38.05-15.269-55.207-27.85-2.83-30.081.836-57.724,11.208-84.506.05-.128.025-.273-.063-.377-3.177-3.753-4.053-9.106-4.282-11.233-.735-6.803,3.609-12.506,7.099-17.087l.069-.091c.259-.34.652-.712,1.033-1.073.492-.466,1.001-.948,1.292-1.424.443-.725.821-1.908,1.187-3.053.268-.836.543-1.701.828-2.325,2.928-6.417,10.362-15.703,15.928-18.527.535-.271,1.513-.541,2.46-.802,1.359-.375,2.209-.62,2.561-.933.267-.237.46-.701.684-1.238.142-.34.289-.692.43-.906,5.084-7.675,17.144-15.676,24.815-16.464.284-.029.585-.042.9-.042.979,0,2.097.12,3.179.236,1.076.115,2.093.225,2.983.225.46,0,.845-.03,1.177-.09.616-.113,1.613-.829,3.18-1.996.922-.686,1.875-1.396,2.478-1.698,3.725-1.868,8.343-2.897,13.003-2.897,5.332,0,10.174,1.387,13.633,3.906,1.694,1.232,2.997,2.956,4.153,4.635.07.102.186.162.309.162.009,0,.018,0,.026,0,.043-.003.084-.013.123-.03.081-.02.154-.062.202-.131,1.157-1.679,2.46-3.403,4.153-4.635,3.46-2.519,8.302-3.906,13.634-3.906,4.66,0,9.278,1.029,13.003,2.897.602.302,1.556,1.011,2.478,1.697,1.568,1.167,2.564,1.883,3.18,1.996.333.06.717.09,1.178.09.891,0,1.907-.109,2.983-.225,1.082-.116,2.201-.236,3.179-.236.314,0,.616.012.9.042,7.671.788,19.73,8.79,24.814,16.464.141.213.288.565.43.905.224.538.418,1.002.686,1.239.351.312,1.201.558,2.56.932.946.261,1.925.531,2.459.802,5.567,2.824,13.001,12.111,15.928,18.527.286.625.563,1.493.832,2.332.365,1.142.742,2.323,1.184,3.046.291.477.801.959,1.294,1.425.38.36.774.732,1.033,1.072l.075.099c3.487,4.58,7.826,10.28,7.092,17.08-.209,1.943-1.212,8.573-5.299,12.312-.356.326-.719.625-1.086.906-.13.1-.18.274-.123.428,9.653,25.903,13.156,53.651,10.413,82.47-17.141,12.586-35.216,21.705-55.241,27.867Z" fill="#fff"/>
      <path d="M189.247,36.034c4.537,0,9.215,1.042,12.835,2.857.573.288,1.513.987,2.422,1.663,1.606,1.195,2.626,1.934,3.337,2.064.355.065.762.096,1.245.096.911,0,1.937-.11,3.023-.227,1.072-.115,2.18-.234,3.138-.234.317,0,.607.013.862.039,7.443.765,19.599,8.838,24.54,16.299.121.183.261.518.396.842.242.58.451,1.081.782,1.374.414.369,1.257.613,2.71,1.014.885.244,1.889.521,2.39.775,4.537,2.301,12.24,10.637,15.757,18.348.276.605.55,1.462.815,2.29.372,1.163.756,2.366,1.221,3.128.317.519.845,1.019,1.356,1.501.37.35.752.711.992,1.027l.071.094c3.448,4.528,7.74,10.164,7.023,16.817-.206,1.91-1.19,8.426-5.18,12.076-.324.296-.671.586-1.061.885-.261.201-.361.548-.246.857,9.615,25.801,13.116,53.433,10.407,82.136-16.995,12.457-34.911,21.502-54.74,27.633-4.142-5.634-7.895-11.702-11.169-18.053,6.268-2.395,12.372-5.345,18.156-8.773.216-.128.354-.356.367-.608s-.102-.492-.304-.641c-1.528-1.126-3.067-2.324-4.575-3.561-.137-.112-.305-.17-.476-.17-.107,0-.215.023-.317.07-17.713,8.249-36.289,12.431-55.211,12.431s-37.61-4.183-55.539-12.433c-.1-.046-.207-.069-.313-.069-.172,0-.342.059-.479.173-1.486,1.233-3.023,2.429-4.569,3.556-.204.149-.319.39-.307.642s.15.481.367.61c5.798,3.431,11.891,6.374,18.121,8.755-3.216,6.251-6.971,12.318-11.17,18.052-19.794-6.126-37.697-15.164-54.705-27.615-2.795-29.955.869-57.491,11.199-84.167.099-.256.05-.546-.127-.755-3.109-3.673-3.97-8.938-4.196-11.031-.718-6.653,3.573-12.289,7.022-16.817l.072-.094c.24-.316.622-.677.991-1.026.511-.483,1.039-.983,1.357-1.502.466-.763.851-1.968,1.224-3.133.264-.827.537-1.681.813-2.285,3.519-7.712,11.221-16.047,15.757-18.348.501-.254,1.505-.531,2.39-.775,1.453-.401,2.295-.645,2.71-1.014.33-.294.539-.794.781-1.373.135-.324.275-.66.397-.843,4.942-7.461,17.097-15.534,24.541-16.298.255-.026.545-.039.862-.039.958,0,2.066.119,3.138.234,1.086.117,2.112.227,3.023.227.483,0,.891-.031,1.245-.096.711-.13,1.731-.869,3.337-2.064.909-.676,1.849-1.376,2.422-1.663,3.621-1.816,8.299-2.857,12.835-2.857,5.253,0,10.017,1.362,13.413,3.834,1.647,1.198,2.927,2.892,4.065,4.544.142.205.367.341.614.341.015,0,.031,0,.046-.002.086-.006.167-.025.243-.055.15-.051.283-.15.376-.284,1.138-1.652,2.418-3.346,4.065-4.544,3.396-2.472,8.16-3.834,13.413-3.834M189.247,35.284c-5.035,0-10.061,1.216-13.854,3.977-1.67,1.215-2.959,2.864-4.241,4.725-.007-.013-.015-.024-.021-.037-.007.013-.015.024-.021.037-1.282-1.861-2.571-3.51-4.241-4.725-3.793-2.761-8.82-3.977-13.854-3.977-4.72,0-9.447,1.069-13.171,2.937-1.442.723-4.535,3.473-5.557,3.659-.327.06-.702.084-1.111.084-1.781,0-4.209-.461-6.161-.461-.328,0-.643.013-.938.043-7.667.788-19.942,8.86-25.089,16.63-.369.556-.691,1.75-1.051,2.07-.575.511-3.735,1.068-4.941,1.68-5.459,2.769-13.038,11.994-16.1,18.706-.681,1.492-1.256,4.131-1.994,5.339-.484.792-1.691,1.658-2.305,2.465h0c-3.479,4.567-7.999,10.448-7.243,17.446.385,3.571,1.649,8.222,4.369,11.435-11.096,28.654-13.867,56.886-11.215,84.844,19.066,14.007,37.543,22.516,55.708,28.083,4.485-6.073,8.485-12.528,11.931-19.331-6.563-2.454-12.848-5.481-18.788-8.995,1.576-1.148,3.117-2.349,4.606-3.585,18.113,8.334,37.01,12.502,55.853,12.502s37.631-4.167,55.528-12.502c1.506,1.236,3.048,2.436,4.606,3.585-5.957,3.532-12.26,6.56-18.823,9.014,3.446,6.786,7.428,13.258,11.931,19.331,18.183-5.568,36.677-14.077,55.742-28.101,2.877-29.973-.966-57.436-10.419-82.804.375-.288.747-.594,1.111-.927,3.461-3.167,4.986-8.544,5.419-12.549.755-6.998-3.765-12.879-7.243-17.446h.001c-.614-.807-1.822-1.674-2.306-2.465-.737-1.208-1.312-3.847-1.994-5.339-3.061-6.712-10.641-15.937-16.1-18.706-1.206-.612-4.366-1.169-4.94-1.68-.361-.32-.683-1.514-1.052-2.07-5.147-7.77-17.422-15.843-25.089-16.63-.296-.03-.611-.043-.938-.043-1.952,0-4.38.461-6.161.461-.409,0-.783-.024-1.111-.084-1.023-.186-4.115-2.936-5.557-3.659-3.724-1.868-8.452-2.937-13.171-2.937h0Z" fill="aqua"/>
    </g>
    <g id="Eyes">
      <path d="M130.235,130.365c12.172,0,21.982,10.986,21.773,24.384,0,13.378-9.601,24.365-21.773,24.365-11.963,0-21.773-10.987-21.773-24.365s9.601-24.384,21.773-24.384Z"/>
      <path d="M208.192,130.365c12.172,0,21.982,10.986,21.773,24.384,0,13.378-9.601,24.365-21.773,24.365-11.963,0-21.773-10.987-21.773-24.365s9.601-24.384,21.773-24.384Z"/>
    </g>
    <g id="Layer_2-2" data-name="Layer 2">
      <g clip-path="url(#clippath)">
        <path d="M542.73-284.345V396.302s-908.852,0-908.852,0V-284.345s908.852,0,908.852,0Z" fill="url(#linear-gradient)"/>
      </g>
    </g>
    <g id="Layer_4" data-name="Layer 4">
      <path d="M240.813,63.188c1.199-.118,1.945.182,2.963.351,2.9.48,10.482,4.734,12.213,8.866.338.634.559,1.005.876,1.402,2.135,2.671,4.072,5.652,5.182,9.333-1.1-.162-1.889-1.036-3.024-1.309-3.351-.804-2.883-1.114-5.713-3.08-1.049-.728-2.509-1.021-3.447-1.963-1.1-1.104-2.228-4.448-3.262-6.063-1.791-2.795-4.303-4.725-6.424-7.015-.106-.793.254-.483.638-.521ZM209.74,44.379c.703-.184,2.166-.383,2.897-.443,8.065-.658,22.173,9.931,22.469,10.202.747.687,5.959,6.075,5.07,7.297-3.176,1.022-6.24-.656-9.397-1.044-1.225-.151-2.37.256-3.546.005-1.82-.387-3.662-3.402-5.149-4.631-1.703-1.407-6.076-5.066-7.192-6.014-.136-.115-.711-.374-.967-.565-1.254-.936-4.347-2.282-4.887-4.031-.181-.589.423-.703.704-.776h-.002ZM176.093,42.186c7.157-5.981,18.93-5.38,26.507-1.05,1.999,1.142,4.371,2.44,5.404,5.247-1.973.156-4.087-.203-6.044.01-3.392.368-6.568,2.361-10.038,2.09-1.345-.105-2.837-.798-4.152-1.002-.613-.095-2.544-.625-2.157,1.008,1.774.249,3.452,1.119,5.046,1.363,5.236.8,9.996-2.767,15.411-2.059,6.489.848,15.205,9.14,15.663,9.489.885.673,2.488,3.974,1.645,5.118-.467.634-3.555,2.5-4.292,2.738-1.405.454-3.135.24-4.494.538-1.22.267-2.561,1.352-3.628,1.398-3.895.166-6.303-4.248-9.972-5.725-1.879-.756-3.428-.59-5.153-1.042-2.319-.607-4.608-2.122-7.079-2.623-3.829-.775-7.756-.586-11.48.862-5.468-4.06-7.148-11.378-1.188-16.358ZM207.947,117.192c-5.863,2.125-15.918-1.811-22.062-3.447-.394-.105-1.053-.446-1.3.199.416.249.267.179,1.544.7,5.824,1.967,12.808,5.5,16.984,5.248-3.637.785-7.264,1.956-10.938,2.451-5.362.722-12.582,1.69-17.09-3.002-6.291-6.548-1.53-17.993,5.78-17.662,3.683.166,7.016,1.978,11.183,1.766,1.318-.067,2.574-.347,3.86-.7.592-.162,4.488-1.493,4.632-1.754.144-.262-.127-.904-.41-.987-.725-.21-4.461,1.18-5.641,1.334-5.134.674-14.759-.228-18.89-4.749-3.9-4.27-4.659-11.276-1.566-16.598,4.284-7.37,10.924-6.7,17.5-7.351.734-.765-.938-1.4-1.416-1.4l-6.036.308c-1.828,0-6.23,2.26-7.88,3.594-1.773,1.433-2.405,3.802-3.684-.266-1.554-4.945.046-9.912,3.06-12.737,6.361-5.963,12.835-2.467,19.49-.432,4.741,1.45,8.359.525,11.649,6.733,1.477,2.786,2.218,5.438.983,8.862-1.488,4.125-3.356,3.155-5.971,3.78-3.051.728-6.241,1.989-9.324,1.393-.84-.162-.614.101-.614,1.016,5.108,1.652,10.397-1.73,15.757-.954,3.723.54,7.362,2.722,9.207,7.255.036.089.332.211.455.593.523,1.621.766,3.757.56,5.514-.428,3.626-6.077,6.197-8.478,6.149.318,1.047,1.493.732,2.158.652,1.943-.234,3.719-1.334,5.562-2.054-.002,7.353-3.783,14.634-9.063,16.548h-.002ZM242.621,116.777l-13.336-3.871c-.592-2.117-1.643-6.963-3.4-7.708-.132-.056-.42-.096-.379.168.528,1.272,1.425,2.335,1.55,3.846.439,5.31-2.93,3.389-5.537,3.688-2.394.274-4.927,1.41-7.339,1.741,1.88-3.284,3.131-6.064,3.86-10.147.625-3.497.799-7.171,1.576-10.633,3.627-5.43,10.694-2.782,14.988-.167,3.694,2.25,6.717,4.863,8.915,9.401.471.972,1.034,1.584,1.363,2.872.918,3.593.779,9.391-2.261,10.813v-.002ZM258.447,119.892c.968-3.83,1.256-8.093-.206-11.796-.238-.602-2.576-4.598-2.062-2.097.445,2.165,1.583,3.589,1.763,6.354.16,2.456-.286,6.629-2.468,7.174-3.107.775-6.845-1.045-9.896-1.735.936-4.386,1.601-7.759.384-12.246-.442-1.628-1.967-4.041-1.943-5.41.038-2.187,1.422-3.425,2.59-4.395,4.794-3.98,10.562.436,14.158,5.072,1.172,1.511,2.314,3.037,3.332,4.644.034.054.339.592.665,1.113,5.413,8.64.667,13.935-6.314,13.323h-.002ZM256.05,94.274c-1.53-.958-3.971-1.239-5.198-2.381-1.443-1.342-2.005-4.573-2.908-6.546-3.54-7.731-13.809-12.648-20.265-11.677-.582.087-.892.12-.888,1.068,7.042.609,14.195,2.075,19.044,9.8,5.231,8.332-1.382,13.572-7.381,10.214-3.319-1.858-5.681-4.695-9.592-5.506-3.308-.686-7.779,1.03-10.578-1.015-1.2-.877-2.215-2.871-3.507-3.98-2.136-1.835-4.89-2.031-5.425-6.271-.196-1.551-.005-2.501.195-3.943.63-4.561,3.02-6.482,6.336-6.958,1.236-.177,2.483.151,3.715-.198,1.827-.517,3.612-2.919,5.527-3.66,7.893-3.06,18.107,1.868,21.995,11.866.03.077.497,1.518.577,1.749.434,1.237.428,1.246.438,1.804.519.142.734.214,1.206.336.607.157.812.182,1.124.312,4.543,1.901,7.366,5.614,10.037,10.852.39-.427.474-1.113.203-1.651l-2.518-4.999c5.13,1.407,11.613,9.588,14.009,15.77,1.065,2.747,1.185,3.866-.522,8.616l-15.627-13.604h.003ZM101.447,63.188c-1.199-.118-1.945.182-2.963.351-2.9.48-10.482,4.734-12.213,8.866-.338.634-.559,1.005-.876,1.402-2.135,2.671-4.072,5.652-5.182,9.333,1.1-.162,1.889-1.036,3.024-1.309,3.351-.804,2.883-1.114,5.713-3.08,1.049-.728,2.509-1.021,3.447-1.963,1.1-1.104,2.228-4.448,3.262-6.063,1.791-2.795,4.303-4.725,6.424-7.015.106-.793-.254-.483-.638-.521ZM132.519,44.379c-.703-.184-2.166-.383-2.897-.443-8.065-.658-22.173,9.931-22.469,10.202-.747.687-5.959,6.075-5.07,7.297,3.176,1.022,6.24-.656,9.397-1.044,1.225-.151,2.37.256,3.546.005,1.82-.387,3.662-3.402,5.149-4.631,1.703-1.407,6.076-5.066,7.192-6.014.136-.115.711-.374.967-.565,1.254-.936,4.347-2.282,4.887-4.031.181-.589-.423-.703-.704-.776h.002ZM166.167,42.186c-7.157-5.981-18.93-5.38-26.507-1.05-1.999,1.142-4.371,2.44-5.404,5.247,1.973.156,4.087-.203,6.044.01,3.392.368,6.568,2.361,10.038,2.09,1.345-.105,2.837-.798,4.151-1.002.613-.095,2.544-.625,2.157,1.008-1.774.249-3.452,1.119-5.046,1.363-5.236.8-9.996-2.767-15.411-2.059-6.489.848-15.205,9.14-15.663,9.489-.885.673-2.488,3.974-1.645,5.118.467.634,3.555,2.5,4.292,2.738,1.405.454,3.135.24,4.494.538,1.22.267,2.561,1.352,3.628,1.398,3.895.166,6.303-4.248,9.972-5.725,1.879-.756,3.428-.59,5.153-1.042,2.319-.607,4.608-2.122,7.079-2.623,3.829-.775,7.756-.586,11.48.862,5.468-4.06,7.148-11.378,1.188-16.358ZM134.312,117.192c5.863,2.125,15.918-1.811,22.062-3.447.394-.105,1.053-.446,1.3.199-.416.249-.267.179-1.544.7-5.824,1.967-12.808,5.5-16.984,5.248,3.637.785,7.264,1.956,10.938,2.451,5.362.722,12.582,1.69,17.09-3.002,6.291-6.548,1.53-17.993-5.78-17.662-3.683.166-7.016,1.978-11.183,1.766-1.318-.067-2.574-.347-3.86-.7-.592-.162-4.488-1.493-4.632-1.754-.144-.262.127-.904.41-.987.725-.21,4.461,1.18,5.641,1.334,5.134.674,14.759-.228,18.89-4.749,3.9-4.27,4.659-11.276,1.566-16.598-4.284-7.37-10.924-6.7-17.5-7.351-.734-.765.938-1.4,1.416-1.4l6.036.308c1.828,0,6.23,2.26,7.88,3.594,1.773,1.433,2.405,3.802,3.684-.266,1.554-4.945-.046-9.912-3.06-12.737-6.361-5.963-12.835-2.467-19.49-.432-4.741,1.45-8.359.525-11.649,6.733-1.477,2.786-2.218,5.438-.983,8.862,1.488,4.125,3.356,3.155,5.971,3.78,3.051.728,6.241,1.989,9.324,1.393.84-.162.614.101.614,1.016-5.108,1.652-10.397-1.73-15.757-.954-3.723.54-7.362,2.722-9.207,7.255-.036.089-.332.211-.455.593-.523,1.621-.766,3.757-.56,5.514.428,3.626,6.077,6.197,8.478,6.149-.318,1.047-1.493.732-2.158.652-1.943-.234-3.719-1.334-5.562-2.054.002,7.353,3.783,14.634,9.063,16.548h.002ZM99.639,116.777l13.336-3.871c.592-2.117,1.643-6.963,3.4-7.708.132-.056.42-.096.379.168-.528,1.272-1.425,2.335-1.55,3.846-.439,5.31,2.93,3.389,5.537,3.688,2.394.274,4.927,1.41,7.339,1.741-1.88-3.284-3.131-6.064-3.86-10.147-.625-3.497-.799-7.171-1.576-10.633-3.627-5.43-10.694-2.782-14.988-.167-3.694,2.25-6.717,4.863-8.915,9.401-.471.972-1.034,1.584-1.363,2.872-.918,3.593-.779,9.391,2.261,10.813v-.002ZM83.813,119.892c-.968-3.83-1.256-8.093.206-11.796.238-.602,2.576-4.598,2.062-2.097-.445,2.165-1.583,3.589-1.763,6.354-.16,2.456.286,6.629,2.468,7.174,3.107.775,6.845-1.045,9.896-1.735-.936-4.386-1.601-7.759-.384-12.246.442-1.628,1.967-4.041,1.943-5.41-.038-2.187-1.422-3.425-2.59-4.395-4.794-3.98-10.562.436-14.158,5.072-1.172,1.511-2.314,3.037-3.332,4.644-.034.054-.339.592-.665,1.113-5.413,8.64-.667,13.935,6.314,13.323h.002ZM86.21,94.274c1.53-.958,3.971-1.239,5.198-2.381,1.443-1.342,2.005-4.573,2.908-6.545,3.54-7.731,13.809-12.648,20.265-11.677.582.087.892.12.888,1.068-7.042.609-14.195,2.075-19.044,9.8-5.231,8.332,1.382,13.572,7.381,10.214,3.319-1.858,5.681-4.695,9.592-5.506,3.308-.686,7.779,1.03,10.578-1.015,1.2-.877,2.215-2.871,3.507-3.98,2.136-1.835,4.89-2.031,5.425-6.271.196-1.551.005-2.501-.195-3.943-.63-4.561-3.02-6.482-6.336-6.958-1.236-.177-2.483.151-3.715-.198-1.827-.517-3.612-2.919-5.527-3.66-7.893-3.06-18.107,1.868-21.995,11.866-.03.077-.497,1.518-.577,1.749-.434,1.237-.428,1.246-.438,1.804-.519.142-.734.214-1.206.336-.607.157-.812.182-1.124.312-4.543,1.901-7.366,5.614-10.037,10.852-.39-.427-.474-1.113-.203-1.651l2.518-4.999c-5.13,1.407-11.613,9.588-14.009,15.77-1.065,2.747-1.185,3.866.522,8.616l15.627-13.604h-.003Z" fill="none" stroke="#fff" stroke-linejoin="round" stroke-width="2"/>
    </g>
  </g>
  <g id="Layer_3" data-name="Layer 3">
    <path d="M312.256,8.463h.003c5.516-1.041,14.753-1.046,14.767,6.547-.532,11.837-19.417,30.126-27.762,38.71-11.32,10.989-34.304,30.945-34.336,30.914-.032-.031-.189-.674-.282-.944-.273-.793-.743-2.206-.765-2.274-.022-.068,22.151-19.252,33.097-29.934,6.514-6.652,30.201-30.099,26.129-38.461-6.6-6.628-37.403,7.75-45.505,11.366-45.604,21.619-88.207,49.007-129.655,77.531-41.244,28.809-81.793,59.074-117.844,94.07-6.533,6.637-30.257,29.992-26.225,38.367,6.571,6.661,37.453-7.652,45.561-11.244,8.166-3.845,23.47-12.515,23.47-12.515l3.099,1.877s-16.444,9.36-25.205,13.513c-11.202,4.925-34.856,16.157-46.353,12.676-7.216-2.615-4.155-11.117-1.267-15.909,6.529-10.977,15.546-20.156,24.439-29.19,36.145-35.276,76.74-65.746,118.079-94.786,41.7-28.535,84.515-55.896,130.418-77.505,11.634-5.199,23.443-10.459,36.136-12.809Z" fill="#85fcff"/>
    <path d="M336.687,222.752h0c2.865,4.759,6.001,13.32-1.244,15.909-11.482,3.52-35.345-7.782-46.371-12.607-8.89-4.197-26.13-13.096-26.13-13.096l3.077-1.867s16.109,8.19,24.415,12.085c8.559,3.782,38.979,17.787,45.579,11.177,4.089-8.364-20.085-32.043-26.284-38.326-36.105-34.942-76.699-65.147-117.988-93.894-41.491-28.462-84.137-55.786-129.773-77.337-8.552-3.805-38.893-17.875-45.521-11.298-4.13,8.351,20.007,32.125,26.187,38.421,11.253,10.95,22.955,21.513,34.971,31.64-.037.16-.772,2.412-1.26,2.738-12.502-10.438-24.291-20.809-35.995-32.137C31.862,45.469,13.086,27.301,12.527,15.493c.049-7.576,9.203-7.622,14.757-6.57,12.694,2.33,24.515,7.575,36.155,12.756,45.937,21.541,88.793,48.839,130.537,77.311,41.383,28.978,82.026,59.387,118.224,94.61,8.909,9.021,17.936,18.184,24.485,29.153Z" fill="#85fcff"/>
  </g>
  <g id="Layer_6_copy_3" data-name="Layer 6 copy 3">
    <g id="Layer_6_copy_3-2" data-name="Layer 6 copy 3">
      <path d="M306.3,41.245c5.983-6.05,12.362-12.86,15.251-20.889,1.225-3.846.203-5.537-3.518-6.35-10.249-1.289-24.415,7.662-32.892,13.396-.488.361-1.537,1.077-1.963,1.434-3.869,3.198-9.597,2.655-12.796-1.214-3.625-4.291-2.337-11.05,2.584-13.734,1.054-.606,2.282-1.188,3.335-1.713,12.532-5.807,31.388-13.574,45.14-8.569,5.154,1.878,9.99,7.003,9.69,12.838-.5,11.305-13.975,21.73-22.356,27.891-2.033,1.385-4.266-1.429-2.476-3.092h0Z" fill="#fff"/>
      <path d="M31.101,44.777c-8.365-6.141-21.868-16.609-22.356-27.891-.309-8.738,9.096-14.155,16.779-14.369,12.498-.598,24.217,3.971,35.366,8.836,1.814.886,4.213,1.934,5.975,2.953,4.399,2.417,6.006,7.942,3.589,12.342-2.66,4.969-9.455,6.251-13.756,2.628-.418-.354-1.464-1.069-1.963-1.434-4.903-3.418-10.178-6.621-15.536-9.17-5.769-2.562-14.659-6.536-20.156-3.069-2.789,1.898-.101,7.013,1.213,9.562,3.393,6.014,8.345,11.633,13.321,16.52,1.8,1.663-.468,4.485-2.476,3.091h0Z" fill="#fff"/>
    </g>
    <g id="Layer_6_copy_4" data-name="Layer 6 copy 4">
      <g>
        <path d="M307.641,45.708c-1.207,0-2.327-.789-2.788-1.963-.447-1.139-.153-2.378.767-3.233,6.043-6.111,12.206-12.754,14.991-20.494.517-1.624.572-2.779.158-3.497-.403-.698-1.34-1.187-2.948-1.538-.531-.063-1.186-.103-1.857-.103-9.434,0-21.789,7.619-30.261,13.35-.136.103-.375.271-.631.454-.458.325-.982.695-1.249.918-1.811,1.496-4.091,2.318-6.429,2.318-3.021,0-5.857-1.334-7.78-3.661-1.911-2.261-2.689-5.279-2.128-8.274.562-3.005,2.386-5.547,5.004-6.975.837-.482,1.773-.943,2.678-1.389l.689-.341c10.342-4.793,23.714-10.28,35.649-10.28,3.782,0,7.24.561,10.279,1.667,5.395,1.966,10.68,7.347,10.346,13.829-.48,10.849-11.776,20.569-22.762,28.646-.553.377-1.14.566-1.728.566Z" fill="#fff"/>
        <path d="M311.505,2c3.484,0,6.84.479,9.937,1.607,5.154,1.878,9.99,7.003,9.69,12.838-.5,11.305-13.975,21.73-22.355,27.891-.381.259-.769.372-1.135.372-1.593,0-2.795-2.112-1.34-3.463,5.983-6.05,12.362-12.86,15.251-20.889,1.225-3.846.203-5.537-3.518-6.35-.674-.085-1.366-.125-2.071-.125-10.017-.001-22.901,8.164-30.821,13.521-.488.361-1.537,1.077-1.963,1.434-1.695,1.401-3.746,2.084-5.786,2.084-2.616,0-5.212-1.124-7.01-3.298-3.625-4.291-2.337-11.05,2.584-13.734,1.054-.606,2.282-1.188,3.335-1.713,9.709-4.499,23.216-10.175,35.203-10.175M311.507,0h-.001c-12.131,0-25.635,5.537-36.044,10.361l-.026.012-.026.013-.677.335c-.879.433-1.875.924-2.763,1.434-2.843,1.55-4.851,4.345-5.469,7.646-.616,3.291.242,6.612,2.354,9.112,2.1,2.54,5.217,4.007,8.537,4.007,2.57,0,5.077-.903,7.06-2.543.229-.192.786-.587,1.193-.876.247-.175.477-.339.65-.466,8.363-5.654,20.521-13.155,29.665-13.155.6,0,1.182.033,1.734.099,1.193.27,1.975.639,2.208,1.042.146.254.308.94-.245,2.693-2.718,7.521-8.776,14.053-14.753,20.099-1.2,1.14-1.577,2.782-.981,4.298.61,1.553,2.105,2.597,3.719,2.597.789,0,1.572-.249,2.262-.719l.03-.02.029-.021c11.177-8.217,22.67-18.138,23.169-29.414.358-6.952-5.264-12.714-11.003-14.806-3.15-1.146-6.723-1.728-10.62-1.728h0Z" fill="aqua"/>
      </g>
      <g>
        <path d="M32.23,46.152c-.591,0-1.179-.191-1.7-.553-6.673-4.899-22.251-16.336-22.785-28.669-.121-3.421,1.137-6.634,3.639-9.299,3.35-3.568,8.889-5.968,14.112-6.113.74-.036,1.499-.053,2.252-.053,11.979,0,23.139,4.433,33.542,8.973.57.277,1.152.551,1.753.833,1.497.704,3.044,1.431,4.322,2.17,2.342,1.287,4.058,3.426,4.81,6.014.752,2.587.452,5.313-.845,7.675-1.721,3.216-5.128,5.219-8.887,5.22h0c-2.353,0-4.622-.819-6.389-2.308-.256-.217-.837-.628-1.303-.958-.232-.165-.447-.317-.606-.434-5.267-3.671-10.445-6.729-15.375-9.073-4.145-1.84-9.748-4.329-14.466-4.329-1.872,0-3.462.404-4.728,1.202-1.99,1.355.377,5.948,1.516,8.155l.053.103c2.861,5.07,7.163,10.401,13.133,16.265.899.829,1.194,2.065.749,3.204-.462,1.182-1.585,1.975-2.795,1.975Z" fill="#fff"/>
        <path d="M27.749,2.464c11.668,0,22.656,4.313,33.142,8.889,1.814.886,4.213,1.934,5.975,2.953,4.399,2.417,6.006,7.942,3.589,12.342-1.628,3.041-4.804,4.701-8.01,4.701-2.033,0-4.077-.667-5.746-2.073-.418-.354-1.464-1.069-1.963-1.434-4.903-3.418-10.178-6.621-15.536-9.17-4.157-1.846-9.935-4.426-14.896-4.426-1.924,0-3.725.388-5.261,1.357-2.789,1.898-.101,7.013,1.213,9.562,3.393,6.014,8.345,11.633,13.321,16.52,1.462,1.35.24,3.466-1.346,3.466-.367,0-.753-.113-1.13-.375-8.365-6.141-21.868-16.609-22.356-27.891-.309-8.738,9.096-14.155,16.779-14.369.744-.036,1.486-.053,2.225-.053M27.749.464c-.774,0-1.555.019-2.32.055-5.52.153-11.197,2.617-14.774,6.427-2.688,2.863-4.039,6.325-3.909,10.01.489,11.306,11.988,21.222,23.171,29.433l.021.016.022.015c.69.479,1.475.732,2.27.732,1.618,0,3.116-1.049,3.727-2.611.595-1.52.212-3.165-.998-4.3-5.88-5.777-10.114-11.019-12.944-16.025l-.035-.069c-2.532-4.911-2.403-6.453-1.833-6.875,1.112-.69,2.472-1.025,4.156-1.025,4.507,0,9.998,2.439,14.008,4.22l.052.023c4.871,2.319,9.994,5.345,15.228,8.993.125.092.344.247.581.416.427.303,1.012.717,1.234.904,1.95,1.643,4.449,2.546,7.038,2.546,4.128,0,7.873-2.206,9.774-5.758,1.416-2.577,1.746-5.573.918-8.416-.827-2.844-2.712-5.196-5.308-6.622-1.275-.738-2.911-1.507-4.354-2.186-.598-.281-1.177-.553-1.705-.811l-.039-.019-.04-.017C51.19,4.938,39.921.464,27.749.464h0Z" fill="aqua"/>
      </g>
    </g>
  </g>
</svg>